<svg id="Icons" height="512" viewBox="0 0 60 60" width="512" xmlns="http://www.w3.org/2000/svg"><path d="m41 59h-22l-6-8v-4a12 12 0 0 1 12-12h10a12 12 0 0 1 12 12v4z" fill="#d4e6e7"/><path d="m20 51v8h-4a3 3 0 0 1 -3-3v-5z" fill="#77493a"/><path d="m40 51v8h4a3 3 0 0 0 3-3v-5z" fill="#77493a"/><path d="m41.24 20.99a4 4 0 0 0 2.88-6.49 3.989 3.989 0 0 0 -1.16-5.98 2.961 2.961 0 0 0 .04-.52 4 4 0 0 0 -4-4 2.961 2.961 0 0 0 -.52.04 3.971 3.971 0 0 0 -3.48-2.04 4.026 4.026 0 0 0 -1.9.48 3.987 3.987 0 0 0 -6.2 0 4.026 4.026 0 0 0 -1.9-.48 3.971 3.971 0 0 0 -3.48 2.04 2.961 2.961 0 0 0 -.52-.04 4 4 0 0 0 -4 4 2.961 2.961 0 0 0 .04.52 3.989 3.989 0 0 0 -1.16 5.98 4 4 0 0 0 2.88 6.49z" fill="#4c3731"/><path d="m26 30.06v4.94a4 4 0 0 0 4 4 4 4 0 0 0 4-4v-4.94z" fill="#77493a"/><path d="m42 19a2.986 2.986 0 0 1 -2.24 2.9 1.009 1.009 0 0 0 -.79.86 9 9 0 0 1 -17.94 0 1.009 1.009 0 0 0 -.79-.86 3 3 0 0 1 .76-5.9 2.985 2.985 0 0 0 2.89-2.22 2.93 2.93 0 0 0 1.11.22 2.985 2.985 0 0 0 2.81-1.96 2.978 2.978 0 0 0 4.38 0 2.985 2.985 0 0 0 2.81 1.96 2.93 2.93 0 0 0 1.11-.22 2.985 2.985 0 0 0 2.89 2.22 3 3 0 0 1 3 3z" fill="#8f5c4a"/><g fill="#aac7c8"><path d="m19 59v-10a1 1 0 0 1 2 0v10z"/><path d="m39 59v-10a1 1 0 0 1 2 0v10z"/></g></svg>