<svg id="Icons" height="512" viewBox="0 0 60 60" width="512" xmlns="http://www.w3.org/2000/svg"><path d="m18.87 37.11a3.009 3.009 0 0 1 -.49-3.58 3.014 3.014 0 0 1 -1.38-2.53 2.93 2.93 0 0 1 .22-1.11 3 3 0 0 1 -1.84-4.36 3.017 3.017 0 0 1 -1-4 3.009 3.009 0 0 1 0-5.06 3.017 3.017 0 0 1 1-4 3 3 0 0 1 1.63-4.29 1.087 1.087 0 0 1 -.01-.18 3 3 0 0 1 3-3 2.787 2.787 0 0 1 1.01.18 1.087 1.087 0 0 1 -.01-.18 3.007 3.007 0 0 1 4.47-2.62 3.014 3.014 0 0 1 2.53-1.38 2.965 2.965 0 0 1 2 .77 2.965 2.965 0 0 1 2-.77 3.014 3.014 0 0 1 2.53 1.38 3.007 3.007 0 0 1 4.47 2.62 1.087 1.087 0 0 1 -.01.18 2.787 2.787 0 0 1 1.01-.18 3 3 0 0 1 3 3 1.087 1.087 0 0 1 -.01.18 3 3 0 0 1 1.63 4.29 3.017 3.017 0 0 1 1 4 3.009 3.009 0 0 1 0 5.06 3.017 3.017 0 0 1 -1 4 3 3 0 0 1 -1.84 4.36 2.93 2.93 0 0 1 .22 1.11 3.014 3.014 0 0 1 -1.38 2.53 3.009 3.009 0 0 1 -.49 3.58z" fill="#ceab65"/><path d="m39 59h-18l-6-8v-6a10.007 10.007 0 0 1 5.14-8.74h19.72a10.015 10.015 0 0 1 5.14 8.74v6z" fill="#d4e6e7"/><g fill="#77493a"><path d="m39.86 36.26c-.47 2.55-2.28 6.36-8.86 6.71-.32.02-.65.03-1 .03s-.68-.01-1-.03c-6.58-.35-8.39-4.16-8.86-6.71a9.988 9.988 0 0 1 4.86-1.26 1 1 0 0 0 1-1v-3.94h8v3.94a1 1 0 0 0 1 1 9.988 9.988 0 0 1 4.86 1.26z"/><path d="m22 51v8h-4a3 3 0 0 1 -3-3v-5z"/><path d="m38 51v8h4a3 3 0 0 0 3-3v-5z"/></g><path d="m21 16a2.985 2.985 0 0 0 2.89-2.22 2.93 2.93 0 0 0 1.11.22 2.987 2.987 0 0 0 2.99-2.78 2.98 2.98 0 0 0 4.02 0 2.987 2.987 0 0 0 2.99 2.78 2.93 2.93 0 0 0 1.11-.22 2.985 2.985 0 0 0 2.89 2.22 3 3 0 0 1 .76 5.9 1.009 1.009 0 0 0 -.79.86 9 9 0 0 1 -17.94 0 1.009 1.009 0 0 0 -.79-.86 3 3 0 0 1 .76-5.9z" fill="#8f5c4a"/><path d="m21 59v-10a1 1 0 0 1 2 0v10z" fill="#aac7c8"/><path d="m37 59v-10a1 1 0 0 1 2 0v10z" fill="#aac7c8"/><path d="m31 40v2.97c-.32.02-.65.03-1 .03s-.68-.01-1-.03v-2.97a1 1 0 0 1 2 0z" fill="#563228"/></svg>