<svg id="Icons" height="512" viewBox="0 0 60 60" width="512" xmlns="http://www.w3.org/2000/svg"><path d="m34 32h1a12 12 0 0 1 12 12v12a3 3 0 0 1 -3 3h-28a3 3 0 0 1 -3-3v-12a12 12 0 0 1 12-12z" fill="#37a58a"/><path d="m26 27.06v4.94a4 4 0 0 0 4 4 4 4 0 0 0 4-4v-4.94z" fill="#77493a"/><path d="m42 16a2.986 2.986 0 0 1 -2.24 2.9 1.009 1.009 0 0 0 -.79.86 9 9 0 0 1 -17.94 0 1.009 1.009 0 0 0 -.79-.86 3 3 0 0 1 -.039-5.793 1.032 1.032 0 0 0 .8-.978v-2.129a9.014 9.014 0 0 1 8.941-9 9.294 9.294 0 0 1 9.058 9.325v1.8a1.032 1.032 0 0 0 .8.978 3 3 0 0 1 2.2 2.897z" fill="#8f5c4a"/><g fill="#2b7f69"><path d="m19 59v-13a1 1 0 0 1 2 0v13z"/><path d="m39 59v-13a1 1 0 0 1 2 0v13z"/></g></svg>