<svg id="Icons" height="512" viewBox="0 0 60 60" width="512" xmlns="http://www.w3.org/2000/svg"><path d="m35 32a12 12 0 0 1 12 12v12a3 3 0 0 1 -3 3h-28a3 3 0 0 1 -3-3v-12a12 12 0 0 1 12-12z" fill="#ceab65"/><path d="m39 19a3 3 0 0 0 0-6v-2.67a9.293 9.293 0 0 0 -9.06-9.33 9.014 9.014 0 0 0 -8.94 9v3a3 3 0 0 0 0 6l1 1h16z" fill="#8f5c4a"/><path d="m34 31v1a4 4 0 0 1 -8 0v-1z" fill="#77493a"/><path d="m25.973 31.93c-4.146-.307-7.112-4.563-6.162-8.973a21.028 21.028 0 0 1 1.189-3.957c1.889-4.582 0-6 0-6l2.276 1.706a4.307 4.307 0 0 1 1.724 3.449.818.818 0 0 0 1.243.694 7.376 7.376 0 0 1 3.757-.849 7.376 7.376 0 0 1 3.757.849.818.818 0 0 0 1.243-.694 4.307 4.307 0 0 1 1.724-3.447l2.276-1.708s-1.889 1.416 0 6a21.028 21.028 0 0 1 1.189 3.957c.95 4.41-2.016 8.666-6.162 8.973-.627.047-7.427.047-8.054 0z" fill="#493b38"/><g fill="#b29056"><path d="m19 59v-13a1 1 0 0 1 2 0v13z"/><path d="m39 59v-13a1 1 0 0 1 2 0v13z"/></g></svg>