<svg id="Icons" height="512" viewBox="0 0 60 60" width="512" xmlns="http://www.w3.org/2000/svg"><path d="m18 19s-1-2-1-9a11.455 11.455 0 0 1 .2-2.14 4.7 4.7 0 0 1 1.7-2.78 4.987 4.987 0 0 1 3.1-1.08s1-3 8-3c3.5 0 5.5.75 6.62 1.5a3.369 3.369 0 0 1 1.38 1.5 4.86 4.86 0 0 1 4.8 3.86 11.455 11.455 0 0 1 .2 2.14c0 7-1 9-1 9z" fill="#493b38"/><path d="m38 37a9 9 0 0 1 9 9v10a3 3 0 0 1 -3 3h-28a3 3 0 0 1 -3-3v-10a9 9 0 0 1 9-9z" fill="#39607a"/><path d="m27.19 51.98-.01-.01a27.245 27.245 0 0 1 -5.18-14.97h16a27.245 27.245 0 0 1 -5.18 14.97l-.01.01z" fill="#c0dadc"/><path d="m34 34 4 3-3.583 3.821a.575.575 0 0 1 -.834 0l-3.583-3.821-3.583 3.821a.575.575 0 0 1 -.834 0l-3.583-3.821 4-3z" fill="#d4e6e7"/><path d="m26.61 40.61 1.39 1.39h4l1.39-1.39-3.39-3.61z" fill="#c64060"/><path d="m32.82 51.97-.01.01a19.792 19.792 0 0 1 -2.81 3.02 19.792 19.792 0 0 1 -2.81-3.02l-.01-.01.82-9.97h4z" fill="#db4d69"/><path d="m34 30.06v3.94l-4 3-4-3v-3.94z" fill="#8f5c4a"/><path d="m42 19a3 3 0 0 1 -2.239 2.9 1.008 1.008 0 0 0 -.793.857 9 9 0 0 1 -17.936 0 1.008 1.008 0 0 0 -.793-.857 3 3 0 0 1 .012-5.809 1.014 1.014 0 0 0 .788-.852 6.233 6.233 0 0 1 4.641-5.219.428.428 0 0 1 .47.15 4.462 4.462 0 0 0 3.85 1.83 4.462 4.462 0 0 0 3.85-1.83.428.428 0 0 1 .47-.15 6.233 6.233 0 0 1 4.641 5.222 1.014 1.014 0 0 0 .788.852 3 3 0 0 1 2.251 2.906z" fill="#a6725c"/><g fill="#355066"><path d="m19 59v-9a1 1 0 0 1 2 0v9z"/><path d="m39 59v-9a1 1 0 0 1 2 0v9z"/></g></svg>