<svg id="Icons" height="512" viewBox="0 0 60 60" width="512" xmlns="http://www.w3.org/2000/svg"><path d="m38 37a7 7 0 0 1 7 7v12a3 3 0 0 1 -3 3h-24a3 3 0 0 1 -3-3v-12a7 7 0 0 1 7-7z" fill="#39607a"/><path d="m22 37c0 .522 0 1.023.011 1.512.127 5.659 4.058 8.488 7.989 8.488s7.862-2.829 7.989-8.488c.011-.489.011-.99.011-1.512z" fill="#c0dadc"/><path d="m34 34 4 3-3.583 3.821a.575.575 0 0 1 -.834 0l-3.583-3.821-3.583 3.821a.575.575 0 0 1 -.834 0l-3.583-3.821 4-3z" fill="#d4e6e7"/><path d="m26 32h-8.695a1.293 1.293 0 0 1 -1.187-1.824c.853-1.856 1.882-5.176 1.882-11.176v-6a12 12 0 0 1 12-12 12 12 0 0 1 12 12v6c0 6 1.029 9.32 1.882 11.176a1.293 1.293 0 0 1 -1.182 1.824z" fill="#77493a"/><path d="m34 30.06v3.94l-4 3-4-3v-3.94z" fill="#bf9079"/><path d="m30 10s0 6 8.941 6a3 3 0 0 1 .821 5.9 1.007 1.007 0 0 0 -.794.857 9 9 0 0 1 -17.936 0 1.007 1.007 0 0 0 -.794-.857 3 3 0 0 1 .751-5.9q3.016-6 9.011-6z" fill="#d7aa91"/><g fill="#355066"><path d="m21 59v-8a1 1 0 0 1 2 0v8z"/><path d="m37 59v-8a1 1 0 0 1 2 0v8z"/></g></svg>