<svg id="Icons" height="512" viewBox="0 0 60 60" width="512" xmlns="http://www.w3.org/2000/svg"><path d="m39 59h-18l-6-8v-6a10.007 10.007 0 0 1 5.14-8.74h19.72a10.015 10.015 0 0 1 5.14 8.74v6z" fill="#355066"/><path d="m39.86 36.26a7.549 7.549 0 0 1 -3.86 5.45 9.33 9.33 0 0 1 -2.04.8 13.729 13.729 0 0 1 -2.96.46c-.32.02-.65.03-1 .03s-.68-.01-1-.03a13.729 13.729 0 0 1 -2.96-.46 9.33 9.33 0 0 1 -2.04-.8 7.549 7.549 0 0 1 -3.86-5.45 9.923 9.923 0 0 1 3.86-1.21c.33-.03.66-.05 1-.05a1 1 0 0 0 1-1v-3.94h8v3.94a1 1 0 0 0 1 1c.34 0 .67.02 1 .05a9.923 9.923 0 0 1 3.86 1.21z" fill="#e7bda0"/><path d="m22 51v8h-4a3 3 0 0 1 -3-3v-5z" fill="#c0daf0"/><path d="m38 51v8h4a3 3 0 0 0 3-3v-5z" fill="#c0daf0"/><path d="m23.42 28.12a8.977 8.977 0 0 0 14.89-2.68l-2.31-13.44a11.218 11.218 0 0 0 -10.951 8.785z" fill="#f6d0b3"/><path d="m17.37 26.21a35.556 35.556 0 0 1 -1.37-9.21v-1.62a14.252 14.252 0 0 1 13-14.345 14 14 0 0 1 15 13.965v4c0 7.9-1.55 13.22-2.42 18.55a.57.57 0 0 1 -1.13-.03c-.81-7.03-2.73-17.93-7.12-23.86a1.624 1.624 0 0 0 -1.33-.66 4.678 4.678 0 0 0 -3.382 1.446z" fill="#333131"/><path d="m32 13a1.613 1.613 0 0 0 -1.24.63c-2.5 3.28-7.98 11.48-8.68 22.11a.579.579 0 0 1 -1.1.22 60.769 60.769 0 0 1 -3.61-9.75c3.92-14.64 14.63-13.21 14.63-13.21z" fill="#c14f6b"/><path d="m37 59v-10a1 1 0 0 1 2 0v10z" fill="#29404f"/><path d="m31 40v2.97c-.32.02-.65.03-1 .03s-.68-.01-1-.03v-2.97a1 1 0 0 1 2 0z" fill="#d7aa91"/><path d="m21 59v-10a1 1 0 0 1 2 0v10z" fill="#29404f"/><path d="m36 35.05v7.95a6 6 0 1 1 -12 0v-7.95c.33-.03.66-.05 1-.05a1 1 0 0 0 1-1v9a2.922 2.922 0 0 0 .04.51 3.992 3.992 0 0 0 7.92 0 2.922 2.922 0 0 0 .04-.51v-9a1 1 0 0 0 1 1c.34 0 .67.02 1 .05z" fill="#e1eeff"/><circle cx="30" cy="49" fill="#fff" r="2"/></svg>