<svg id="Icons" height="512" viewBox="0 0 60 60" width="512" xmlns="http://www.w3.org/2000/svg"><path d="m38 34a9 9 0 0 1 9 9v13a3 3 0 0 1 -3 3h-28a3 3 0 0 1 -3-3v-13a9 9 0 0 1 9-9z" fill="#39607a"/><path d="m34 31 4 3-3.583 3.821a.575.575 0 0 1 -.834 0l-3.583-3.821-3.583 3.821a.575.575 0 0 1 -.834 0l-3.583-3.821 4-3z" fill="#d4e6e7"/><path d="m30 45v5.465a1 1 0 0 0 .445.832l2 1.333a1 1 0 0 0 1.11 0l2-1.333a1 1 0 0 0 .445-.832v-5.465z" fill="#4684aa"/><path d="m34 27.06v3.94l-4 3-4-3v-3.94z" fill="#d7aa91"/><path d="m19.02 13.75v.01a2.929 2.929 0 0 0 -1.02 2.24 2.986 2.986 0 0 0 2.24 2.9 1.009 1.009 0 0 1 .79.86 9 9 0 0 0 17.94 0 1.009 1.009 0 0 1 .79-.86 2.986 2.986 0 0 0 2.24-2.9 2.929 2.929 0 0 0 -1.02-2.24v-.01l-3.38-8.56a8.985 8.985 0 0 0 -13.96-1.55 8.3 8.3 0 0 0 -1.23 1.55z" fill="#e7bda0"/><path d="m40.98 13.75a3.016 3.016 0 0 0 -1.98-.75h-.06a2 2 0 0 1 -2-1.9 35.985 35.985 0 0 0 -.41-3.88 1.9 1.9 0 0 1 1.06-2.03h.01a1.918 1.918 0 0 1 2.72 1.39 49.374 49.374 0 0 1 .66 7.17z" fill="#d4e6e7"/><path d="m19.02 13.75a3.016 3.016 0 0 1 1.98-.75h.06a2 2 0 0 0 2-1.9 35.985 35.985 0 0 1 .41-3.88 1.9 1.9 0 0 0 -1.06-2.03h-.01a1.918 1.918 0 0 0 -2.72 1.39 49.374 49.374 0 0 0 -.66 7.17z" fill="#d4e6e7"/><circle cx="25.5" cy="14.5" fill="#fff" r="2.5"/><circle cx="34.5" cy="14.5" fill="#fff" r="2.5"/><rect fill="#5998ca" height="4" rx="1" width="8" x="29" y="42"/><path d="m19 59v-10a1 1 0 0 1 2 0v10z" fill="#355066"/><path d="m39 59v-10a1 1 0 0 1 2 0v10z" fill="#355066"/><path d="m32 7h-4a1 1 0 0 1 0-2h4a1 1 0 0 1 0 2z" fill="#d7aa91"/><path d="m38.94 12.93a1.933 1.933 0 0 0 -1.94-1.93h-2.5a3.458 3.458 0 0 0 -2.64 1.23 7.58 7.58 0 0 0 -1.86-.22v-.01a7.642 7.642 0 0 0 -1.86.23 3.458 3.458 0 0 0 -2.64-1.23h-2.5a1.949 1.949 0 0 0 -1.94 2h1.29a3.424 3.424 0 0 0 -.26 2.28 3.5 3.5 0 0 0 6.91-.78c0-.14-.03-.27-.04-.41a6 6 0 0 1 1.04-.09 5.917 5.917 0 0 1 1.04.09c-.01.14-.04.27-.04.41a3.508 3.508 0 0 0 4.38 3.39 3.468 3.468 0 0 0 2.53-2.61 3.424 3.424 0 0 0 -.26-2.28h1.29zm-13.44 3.07a1.5 1.5 0 1 1 1.5-1.5 1.5 1.5 0 0 1 -1.5 1.5zm9 0a1.5 1.5 0 1 1 1.5-1.5 1.5 1.5 0 0 1 -1.5 1.5z" fill="#333131"/></svg>