<svg id="Icons" height="512" viewBox="0 0 60 60" width="512" xmlns="http://www.w3.org/2000/svg"><path d="m38.71 35.72a9.983 9.983 0 0 1 6.29 9.28v11a3 3 0 0 1 -3 3h-24a3 3 0 0 1 -3-3v-11a9.983 9.983 0 0 1 6.29-9.28z" fill="#e18ed4"/><path d="m36.99 39.82a1.087 1.087 0 0 1 .01.18 3.007 3.007 0 0 1 -4.47 2.62 3.009 3.009 0 0 1 -5.06 0 3.007 3.007 0 0 1 -4.47-2.62 1.087 1.087 0 0 1 .01-.18 2.977 2.977 0 0 1 -2.01-2.82 2.9 2.9 0 0 1 .29-1.28 9.769 9.769 0 0 1 3.71-.72h10a9.769 9.769 0 0 1 3.71.72 2.9 2.9 0 0 1 .29 1.28 2.977 2.977 0 0 1 -2.01 2.82z" fill="#d4e6e7"/><path d="m22.01 7.8c.11-3.78 3.65-6.8 7.99-6.8s7.88 3.02 7.99 6.8z" fill="#c0dadc"/><path d="m18.146 17.848a9.377 9.377 0 0 1 -.177-1.931c.042-6.08 5.446-10.963 12.076-10.917s11.965 5 11.923 11.083a9.412 9.412 0 0 1 -.2 1.929v.01z" fill="#d4e6e7"/><path d="m34 30.06v4.94a4 4 0 0 1 -4 4 4 4 0 0 1 -4-4v-4.94z" fill="#916456"/><path d="m42 19a3 3 0 0 0 -2.989-3c-2.011-4-5.011-5-9.011-5-4 0-7 1-9.011 5a3 3 0 0 0 -.751 5.9 1.007 1.007 0 0 1 .794.857 9 9 0 0 0 17.936 0 1.007 1.007 0 0 1 .794-.857 3 3 0 0 0 2.238-2.9z" fill="#aa7966"/><circle cx="25.5" cy="17.5" fill="#fff" r="2.5"/><circle cx="34.5" cy="17.5" fill="#fff" r="2.5"/><path d="m21 59v-10a1 1 0 0 1 2 0v10z" fill="#c97dbf"/><path d="m37 59v-10a1 1 0 0 1 2 0v10z" fill="#c97dbf"/><path d="m37.95 14h-3.45a3.458 3.458 0 0 0 -2.64 1.23 7.636 7.636 0 0 0 -3.72 0 3.458 3.458 0 0 0 -2.64-1.23h-3.45a2.017 2.017 0 0 0 -2.02 2v.16a3.44 3.44 0 0 1 1.01-.16h1.31a3.424 3.424 0 0 0 -.26 2.28 3.5 3.5 0 0 0 6.91-.78c0-.14-.03-.27-.04-.41a6.054 6.054 0 0 1 2.08 0c-.01.14-.04.27-.04.41a3.5 3.5 0 0 0 6.91.78 3.424 3.424 0 0 0 -.26-2.28h1.31a3.44 3.44 0 0 1 1.01.16v-.16a2.017 2.017 0 0 0 -2.02-2zm-12.45 5a1.5 1.5 0 1 1 1.5-1.5 1.5 1.5 0 0 1 -1.5 1.5zm9 0a1.5 1.5 0 1 1 1.5-1.5 1.5 1.5 0 0 1 -1.5 1.5z" fill="#333131"/></svg>