<svg id="Icons" height="512" viewBox="0 0 60 60" width="512" xmlns="http://www.w3.org/2000/svg"><path d="m36 6c0-2.76-2.69-5-6-5s-6 2.24-6 5z" fill="#c24e36"/><path d="m39 59h-18l-6-8v-6a10.007 10.007 0 0 1 5.14-8.74h19.72a10.015 10.015 0 0 1 5.14 8.74v6z" fill="#5656d6"/><g fill="#e7bda0"><path d="m39.86 36.26c-.47 2.55-2.28 6.36-8.86 6.71-.32.02-.65.03-1 .03s-.68-.01-1-.03c-6.58-.35-8.39-4.16-8.86-6.71a9.988 9.988 0 0 1 4.86-1.26 1 1 0 0 0 1-1v-3.94h8v3.94a1 1 0 0 0 1 1 9.988 9.988 0 0 1 4.86 1.26z"/><path d="m22 51v8h-4a3 3 0 0 1 -3-3v-5z"/><path d="m38 51v8h4a3 3 0 0 0 3-3v-5z"/></g><path d="m42 19v-4s0-10-12.082-10h.008c-11.926 0-11.926 10-11.926 10v4z" fill="#d95f3d"/><path d="m42 19a2.986 2.986 0 0 1 -2.24 2.9 1.009 1.009 0 0 0 -.79.86 9 9 0 0 1 -17.94 0 1.009 1.009 0 0 0 -.79-.86 3 3 0 0 1 .24-5.854.914.914 0 0 0 .689-.571 5.161 5.161 0 0 1 4.831-3.475 5 5 0 0 1 4 2 5 5 0 0 1 4-2 5.158 5.158 0 0 1 4.826 3.463.919.919 0 0 0 .7.573 2.954 2.954 0 0 1 2.474 2.964z" fill="#f6d0b3"/><path d="m21 59v-10a1 1 0 0 1 2 0v10z" fill="#4646b2"/><path d="m37 59v-10a1 1 0 0 1 2 0v10z" fill="#4646b2"/><path d="m31 40v2.97c-.32.02-.65.03-1 .03s-.68-.01-1-.03v-2.97a1 1 0 0 1 2 0z" fill="#d7aa91"/></svg>