<svg id="Icons" height="512" viewBox="0 0 60 60" width="512" xmlns="http://www.w3.org/2000/svg"><path d="m38.52 35.53a11.965 11.965 0 0 1 8.48 11.47v9a3 3 0 0 1 -3 3h-28a3 3 0 0 1 -3-3v-9a11.989 11.989 0 0 1 7.77-11.23z" fill="#39607a"/><path d="m38.52 35.53-8.57 9.42-9.18-9.18a11.852 11.852 0 0 1 4.23-.77 1 1 0 0 0 1-1v-3.94h8v3.94a1 1 0 0 0 1 1 11.671 11.671 0 0 1 3.52.53z" fill="#d3b390"/><path d="m49 16a9.455 9.455 0 0 1 -7.71 4.93h-22.58a9.455 9.455 0 0 1 -7.71-4.93v-1h37z" fill="#b29056"/><path d="m21 16a3 3 0 0 0 -.76 5.9 1.009 1.009 0 0 1 .79.86 9 9 0 0 0 17.94 0 1.009 1.009 0 0 1 .79-.86 3 3 0 0 0 -.76-5.9l-1-1h-16z" fill="#e5c6a1"/><path d="m29.248 1.237-18.855 13.105a.91.91 0 0 0 .519 1.658h38.171a.915.915 0 0 0 .522-1.667l-18.843-13.096a1.327 1.327 0 0 0 -1.514 0z" fill="#ceab65"/><path d="m40 55v4h-9l-13.77-21.13a11.728 11.728 0 0 1 3.54-2.1l9.18 9.18z" fill="#355066"/><path d="m19 59v-10a1 1 0 0 1 2 0v10z" fill="#355066"/><path d="m39.54 35.89-8.85 9.73-.74-.67-.74-.67.03-.04 8.18-8.99a10.424 10.424 0 0 1 1.1.28 8.8 8.8 0 0 1 1.02.36z" fill="#c0dadc"/><path d="m40 53.59v2.82l-20.22-20.21c.32-.16.65-.3.99-.43s.71-.25 1.07-.35l8.78 8.79z" fill="#d4e6e7"/><path d="m39 59v-10a1 1 0 0 1 2 0v10z" fill="#355066"/></svg>