<svg id="Icons" height="512" viewBox="0 0 60 60" width="512" xmlns="http://www.w3.org/2000/svg"><path d="m36.41 29.98a6 6 0 0 0 5.59-5.98v-11a12 12 0 0 0 -24 0v11a6 6 0 0 0 5.59 5.98z" fill="#493b38"/><path d="m23.3 28a9 9 0 0 1 -2.27-5.24 1.009 1.009 0 0 0 -.79-.86 3 3 0 0 1 .06-5.82 1.033 1.033 0 0 0 .78-.79 2.78 2.78 0 0 1 2.92-2.29h12a2.78 2.78 0 0 1 2.92 2.29 1.033 1.033 0 0 0 .78.79 3 3 0 0 1 .06 5.82 1.009 1.009 0 0 0 -.79.86 9 9 0 0 1 -2.27 5.24l-.7 2h-12z" fill="#e7bda0"/><path d="m23.3 28a9 9 0 0 1 -2.27-5.24 1.009 1.009 0 0 0 -.79-.86 3 3 0 0 1 .06-5.82 1.033 1.033 0 0 0 .78-.79 2.78 2.78 0 0 1 2.92-2.29h12a2.78 2.78 0 0 1 2.92 2.29 1.033 1.033 0 0 0 .78.79 3 3 0 0 1 .06 5.82 1.009 1.009 0 0 0 -.79.86 9 9 0 0 1 -2.27 5.24l-.7 2h-12z" fill="#e7bda0"/><path d="m47 47v4l-6 8h-22l-6-8v-4a12 12 0 0 1 11-11.96c.33-.03.66-.04 1-.04h10c.34 0 .67.01 1 .04a12 12 0 0 1 11 11.96z" fill="#355066"/><path d="m26 30.06v4.94a4 4 0 0 0 4 4 4 4 0 0 0 4-4v-4.94z" fill="#cca28d"/><path d="m20 51v8h-4a3 3 0 0 1 -3-3v-5z" fill="#d7aa91"/><path d="m40 51v8h4a3 3 0 0 0 3-3v-5z" fill="#d7aa91"/><path d="m36.7 28-.43 2.981a2.22 2.22 0 0 1 -1.83 1.81l-3.24.539a7.3 7.3 0 0 1 -2.406 0l-3.237-.539a2.22 2.22 0 0 1 -1.83-1.81l-.427-2.981a8.174 8.174 0 0 0 3.7 1l.078-.149a3.365 3.365 0 0 1 2.136-1.757 3.227 3.227 0 0 1 3.676 1.7l.11.206a8.174 8.174 0 0 0 3.7-1z" fill="#352926"/><path d="m19 59v-10a1 1 0 0 1 2 0v10z" fill="#29404f"/><path d="m39 59v-10a1 1 0 0 1 2 0v10z" fill="#29404f"/><path d="m36 35.04v4.96a6 6 0 0 1 -12 0v-4.96c.33-.03.66-.04 1-.04h1v5a4 4 0 0 0 8 0v-5h1c.34 0 .67.01 1 .04z" fill="#e1eeff"/><g fill="#352926"><path d="m24.96 13h-.96a3.282 3.282 0 0 0 -1.03.15 8.291 8.291 0 0 0 -3.19-6.46 12.7 12.7 0 0 1 1.2-1.61 10.224 10.224 0 0 1 3.98 7.92z"/><path d="m28.98 13h-2a21.844 21.844 0 0 0 -2.65-10.58 10.977 10.977 0 0 1 1.86-.8 24.182 24.182 0 0 1 2.79 11.38z"/><path d="m40.22 6.69a8.291 8.291 0 0 0 -3.19 6.46 3.282 3.282 0 0 0 -1.03-.15h-.96a10.224 10.224 0 0 1 3.98-7.92 12.7 12.7 0 0 1 1.2 1.61z"/><path d="m35.67 2.42a21.844 21.844 0 0 0 -2.65 10.58h-2a24.182 24.182 0 0 1 2.79-11.38 10.977 10.977 0 0 1 1.86.8z"/></g><circle cx="30" cy="46" fill="#fff" r="2"/></svg>