<svg id="Icons" height="512" viewBox="0 0 60 60" width="512" xmlns="http://www.w3.org/2000/svg"><path d="m41 59h-22l-6-8v-4a12 12 0 0 1 12-12h10a12 12 0 0 1 12 12v4z" fill="#4684aa"/><path d="m42 19v-9.4h-7v3.4z" fill="#997756"/><path d="m20.5 7s.5-5 8.5-5a91.813 91.813 0 0 0 12.935-.991.94.94 0 0 1 1.065.933v4.058a7 7 0 0 1 -7 7l-14 1z" fill="#ceab65"/><path d="m18 19v-9.5a2.5 2.5 0 0 1 2.5-2.5 2.53 2.53 0 0 1 2.5 2.5v4.5z" fill="#997756"/><path d="m26 30.06v4.94a4 4 0 0 0 4 4 4 4 0 0 0 4-4v-4.94z" fill="#d7aa91"/><path d="m36 13a2.781 2.781 0 0 1 2.922 2.287 1.042 1.042 0 0 0 .782.8 3 3 0 0 1 .056 5.813 1.009 1.009 0 0 0 -.79.86 9 9 0 0 1 -17.94 0 1.009 1.009 0 0 0 -.79-.86 3 3 0 0 1 .056-5.817 1.042 1.042 0 0 0 .782-.8 2.781 2.781 0 0 1 2.922-2.283z" fill="#e7bda0"/><path d="m20 51v8h-4a3 3 0 0 1 -3-3v-5z" fill="#d7aa91"/><path d="m40 51v8h4a3 3 0 0 0 3-3v-5z" fill="#d7aa91"/><g fill="#3a728b"><path d="m19 59v-10a1 1 0 0 1 2 0v10z"/><path d="m39 59v-10a1 1 0 0 1 2 0v10z"/></g></svg>