<svg id="Icons" height="512" viewBox="0 0 60 60" width="512" xmlns="http://www.w3.org/2000/svg"><path d="m38 37a9 9 0 0 1 9 9v10a3 3 0 0 1 -3 3h-28a3 3 0 0 1 -3-3v-10a9 9 0 0 1 9-9z" fill="#39607a"/><path d="m34 34 4 3-3.583 3.821a.575.575 0 0 1 -.834 0l-3.583-3.821-3.583 3.821a.575.575 0 0 1 -.834 0l-3.583-3.821 4-3z" fill="#d4e6e7"/><path d="m34 30.06v3.94l-4 3-4-3v-3.94z" fill="#77493a"/><path d="m18 19v-9a9 9 0 0 1 9-9h6a9 9 0 0 1 9 9v9z" fill="#4c3731"/><path d="m41.956 18.473a2.994 2.994 0 0 1 -2.2 3.427 1.009 1.009 0 0 0 -.79.86 9 9 0 0 1 -17.94-.01.986.986 0 0 0 -.79-.85 2.993 2.993 0 0 1 -2.236-3.06 3.12 3.12 0 0 1 3.181-2.84 1.827 1.827 0 0 0 1.819-1.84v-1.46a4.638 4.638 0 0 1 4.147-4.687 4.477 4.477 0 0 1 2.071.328 1.989 1.989 0 0 0 1.546.007 4.5 4.5 0 0 1 6.236 4.152v1.66a1.84 1.84 0 0 0 1.84 1.84 3.108 3.108 0 0 1 3.116 2.473z" fill="#8f5c4a"/><g fill="#355066"><path d="m19 59v-10a1 1 0 0 1 2 0v10z"/><path d="m39 59v-10a1 1 0 0 1 2 0v10z"/></g></svg>