<svg id="Icons" height="512" viewBox="0 0 60 60" width="512" xmlns="http://www.w3.org/2000/svg"><path d="m34 35h1a12 12 0 0 1 12 12v9a3 3 0 0 1 -3 3h-28a3 3 0 0 1 -3-3v-9a12 12 0 0 1 12-12z" fill="#37a58a"/><path d="m26 30.06v4.94a4 4 0 0 0 4 4 4 4 0 0 0 4-4v-4.94z" fill="#d7aa91"/><path d="m18 19v-8a10 10 0 0 1 10-10h8.579a1.417 1.417 0 0 1 1 2.419l-1.579 1.581a6 6 0 0 1 6 6v8z" fill="#77493a"/><path d="m42 19a3 3 0 0 0 -2.3-2.917 1.042 1.042 0 0 1 -.782-.8 3.22 3.22 0 0 0 -2.7-2.5c-1.86-.26-4.211-.83-5.581-2.061a.964.964 0 0 0 -1.278 0c-1.37 1.231-3.721 1.8-5.581 2.061a3.22 3.22 0 0 0 -2.7 2.5 1.042 1.042 0 0 1 -.782.8 3 3 0 0 0 -.056 5.817 1.009 1.009 0 0 1 .79.86 9 9 0 0 0 17.94 0 1.009 1.009 0 0 1 .79-.86 2.986 2.986 0 0 0 2.24-2.9z" fill="#e7bda0"/><g fill="#2b7f69"><path d="m19 59v-10a1 1 0 0 1 2 0v10z"/><path d="m39 59v-10a1 1 0 0 1 2 0v10z"/></g></svg>