<svg id="Icons" height="512" viewBox="0 0 60 60" width="512" xmlns="http://www.w3.org/2000/svg"><path d="m18 38.26v-25.26a12 12 0 0 1 24 0v25.26z" fill="#684942"/><path d="m38 37a7 7 0 0 1 7 7v12a3 3 0 0 1 -3 3h-24a3 3 0 0 1 -3-3v-12a7 7 0 0 1 7-7z" fill="#d95f3d"/><path d="m34 34 4 3-3.583 3.821a.575.575 0 0 1 -.834 0l-3.583-3.821-3.583 3.821a.575.575 0 0 1 -.834 0l-3.583-3.821 4-3z" fill="#d4e6e7"/><path d="m34 30.06v3.94l-4 3-4-3v-3.94z" fill="#a6725c"/><path d="m39.011 16a3 3 0 0 1 2.989 3 3 3 0 0 1 -2.238 2.9 1.007 1.007 0 0 0 -.794.857 9 9 0 0 1 -17.936 0 1.007 1.007 0 0 0 -.794-.857 3 3 0 0 1 .751-5.9v-1.008a3 3 0 0 1 3-2.992h12.022a3 3 0 0 1 3 3z" fill="#c7947c"/><circle cx="25.5" cy="17.5" fill="#fff" r="2.5"/><circle cx="34.5" cy="17.5" fill="#fff" r="2.5"/><path d="m21 59v-8a1 1 0 0 1 2 0v8z" fill="#c24e36"/><path d="m37 59v-8a1 1 0 0 1 2 0v8z" fill="#c24e36"/><path d="m38.87 14h-4.38a3.453 3.453 0 0 0 -2.63 1.23 7.636 7.636 0 0 0 -3.72 0 3.453 3.453 0 0 0 -2.63-1.23h-4.38a1.123 1.123 0 0 0 -1.13 1.13v1.05a2.718 2.718 0 0 1 .99-.18h1.36a3.419 3.419 0 0 0 -.14 2.68 3.5 3.5 0 0 0 6.79-1.18c0-.14-.03-.27-.04-.41a5.917 5.917 0 0 1 1.04-.09 6 6 0 0 1 1.04.09c-.01.14-.04.27-.04.41a3.5 3.5 0 0 0 6.79 1.18 3.419 3.419 0 0 0 -.14-2.68h1.36a2.718 2.718 0 0 1 .99.18v-1.05a1.123 1.123 0 0 0 -1.13-1.13zm-13.37 5a1.5 1.5 0 1 1 1.5-1.5 1.5 1.5 0 0 1 -1.5 1.5zm9 0a1.5 1.5 0 1 1 1.5-1.5 1.5 1.5 0 0 1 -1.5 1.5z" fill="#333131"/></svg>