<svg id="Icons" height="512" viewBox="0 0 60 60" width="512" xmlns="http://www.w3.org/2000/svg"><path d="m41.38 17.18a9.9 9.9 0 0 0 1.62-5.18c0-4.94-2.72-6.49-3.67-6.89h-18.66c-.95.4-3.67 1.95-3.67 6.89a9.9 9.9 0 0 0 1.62 5.18z" fill="#333131"/><path d="m34 35h1a12 12 0 0 1 12 12v9a3 3 0 0 1 -3 3h-28a3 3 0 0 1 -3-3v-9a12 12 0 0 1 12-12z" fill="#57b2a1"/><path d="m26 30.06v4.94l2.727 3.409a1.63 1.63 0 0 0 2.546 0l2.727-3.409v-4.94z" fill="#e7bda0"/><path d="m36.24 12.97.27 1.09a2.568 2.568 0 0 0 2.49 1.94 3.042 3.042 0 0 1 3 3 2.986 2.986 0 0 1 -2.24 2.9 1.009 1.009 0 0 0 -.79.86 9 9 0 0 1 -17.94 0 1.009 1.009 0 0 0 -.79-.86 2.986 2.986 0 0 1 -2.24-2.9 3.089 3.089 0 0 1 3-3 2.568 2.568 0 0 0 2.49-1.94l.27-1.09z" fill="#f6d0b3"/><path d="m39.558 4.108-1.7 7.343a2 2 0 0 1 -1.948 1.549h-11.82a2 2 0 0 1 -1.949-1.549l-1.7-7.343a2 2 0 0 1 1.573-2.416 41.31 41.31 0 0 1 7.986-.692 41.31 41.31 0 0 1 7.985.692 2 2 0 0 1 1.573 2.416z" fill="#57b2a1"/><path d="m37 45a1 1 0 0 1 -1-1v-3a1 1 0 0 1 2 0v3a1 1 0 0 1 -1 1z" fill="#aac7c8"/><path d="m19 59v-10a1 1 0 0 1 2 0v10z" fill="#479e8d"/><path d="m39 47h2v12h-2z" fill="#479e8d"/><g fill="#fff"><path d="m32 6h-1v-1a1 1 0 0 0 -2 0v1h-1a1 1 0 0 0 0 2h1v1a1 1 0 0 0 2 0v-1h1a1 1 0 0 0 0-2z"/><rect height="6" rx="1" width="8" x="33" y="43"/></g></svg>