<svg id="Icons" height="512" viewBox="0 0 60 60" width="512" xmlns="http://www.w3.org/2000/svg"><path d="m40.169 36.44a12.287 12.287 0 0 0 5.39-2.45 1.3 1.3 0 0 0 .209-1.71c-.879-1.28-2.768-4.57-2.768-12.28 0-4.63-.79-9.71-4.46-11.48h-17.079c-3.67 1.77-4.461 6.85-4.461 11.48 0 7.71-1.89 11-2.769 12.28a1.3 1.3 0 0 0 .21 1.71 12.275 12.275 0 0 0 5.389 2.45z" fill="#4c3731"/><path d="m34 35h1a10 10 0 0 1 10 10v11a3 3 0 0 1 -3 3h-24a3 3 0 0 1 -3-3v-11a10 10 0 0 1 10-10z" fill="#57b2a1"/><path d="m26 30.06v4.94l2.727 3.409a1.63 1.63 0 0 0 2.546 0l2.727-3.409v-4.94z" fill="#77493a"/><path d="m39.558 4.108-1.7 7.343a2 2 0 0 1 -1.948 1.549h-11.82a2 2 0 0 1 -1.949-1.549l-1.7-7.343a2 2 0 0 1 1.573-2.416 41.31 41.31 0 0 1 7.986-.692 41.31 41.31 0 0 1 7.985.692 2 2 0 0 1 1.573 2.416z" fill="#57b2a1"/><path d="m39 22c-8 0-9-5-9-5s-1 5-9 5a9 9 0 0 0 18 0z" fill="#8f5c4a"/><path d="m37 45a1 1 0 0 1 -1-1v-3a1 1 0 0 1 2 0v3a1 1 0 0 1 -1 1z" fill="#aac7c8"/><path d="m21 59v-10a1 1 0 0 1 2 0v10z" fill="#479e8d"/><path d="m37 48h2v11h-2z" fill="#479e8d"/><g fill="#fff"><path d="m32 6h-1v-1a1 1 0 0 0 -2 0v1h-1a1 1 0 0 0 0 2h1v1a1 1 0 0 0 2 0v-1h1a1 1 0 0 0 0-2z"/><rect height="6" rx="1" width="8" x="33" y="43"/></g></svg>