<svg id="Icons" height="512" viewBox="0 0 60 60" width="512" xmlns="http://www.w3.org/2000/svg"><path d="m34 30.06v3.94a1 1 0 0 0 1 1 10 10 0 0 1 10 10v11a3 3 0 0 1 -3 3h-24a3 3 0 0 1 -3-3v-11a10 10 0 0 1 10-10 1 1 0 0 0 1-1v-3.94z" fill="#d7aa91"/><path d="m35.44 12.13 3.55 10.22a9 9 0 0 1 -17.96.41 1.009 1.009 0 0 0 -.79-.86 3 3 0 0 1 .75-5.9s-.99-6 5.01-8z" fill="#e7bda0"/><path d="m30 13.66a1.852 1.852 0 0 1 -1.37-.48 8.447 8.447 0 0 1 -2.04-3.24 12.814 12.814 0 0 1 -.59-1.94 7 7 0 0 1 7-7h2a7 7 0 0 1 7 7v18.193a.813.813 0 0 1 -1.58.267l-1.43-4.11-3.55-10.22-.278-.091a4.645 4.645 0 0 0 -5.162 1.621z" fill="#333131"/><path d="m35.44 12.13a12.31 12.31 0 0 0 -4.59 1.29 1.881 1.881 0 0 1 -.85.24v-3.21a2.412 2.412 0 0 1 1.57-2.32 2.344 2.344 0 0 1 2.98 1.44z" fill="#262424"/><path d="m38 35.46v23.54h-16v-23.54a9.908 9.908 0 0 1 3-.46s0 6 5 6 5-6 5-6a9.908 9.908 0 0 1 3 .46z" fill="#333131"/></svg>