<svg id="Icons" height="512" viewBox="0 0 60 60" width="512" xmlns="http://www.w3.org/2000/svg"><path d="m34 35h1a12 12 0 0 1 12 12v9a3 3 0 0 1 -3 3h-28a3 3 0 0 1 -3-3v-9a12 12 0 0 1 12-12z" fill="#a6725c"/><path d="m40 36.08v22.92h-20v-22.92a12.058 12.058 0 0 1 5-1.08h10a12.058 12.058 0 0 1 5 1.08z" fill="#333131"/><path d="m26 30.06v4.94a4 4 0 0 0 4 4 4 4 0 0 0 4-4v-4.94z" fill="#8f5c4a"/><path d="m32 4.25a9.414 9.414 0 0 1 7 9.08v1.8a1.041 1.041 0 0 0 .8.98 3 3 0 0 1 -.04 5.79 1.009 1.009 0 0 0 -.79.86 9 9 0 0 1 -17.94 0 1.009 1.009 0 0 0 -.79-.86 3 3 0 0 1 -.04-5.79 1.041 1.041 0 0 0 .8-.98v-2.13a9.034 9.034 0 0 1 7-8.78z" fill="#a6725c"/><path d="m30 1a2 2 0 0 1 2 2v6a1 1 0 0 1 -1 1h-2a1 1 0 0 1 -1-1v-6a2 2 0 0 1 2-2z" fill="#333131"/></svg>