<svg id="Icons" height="512" viewBox="0 0 60 60" width="512" xmlns="http://www.w3.org/2000/svg"><path d="m42 19v-1a20 20 0 0 0 -1.14-7.49l-22.04.91a22.405 22.405 0 0 0 -.82 6.58v1z" fill="#997756"/><path d="m39 59h-18l-6-8v-6a10.007 10.007 0 0 1 5.14-8.74h19.72a10.015 10.015 0 0 1 5.14 8.74v6z" fill="#7996f2"/><g fill="#d7aa91"><path d="m39.86 36.26c-.47 2.55-2.28 6.36-8.86 6.71-.32.02-.65.03-1 .03s-.68-.01-1-.03c-6.58-.35-8.39-4.16-8.86-6.71a9.988 9.988 0 0 1 4.86-1.26 1 1 0 0 0 1-1v-3.94h8v3.94a1 1 0 0 0 1 1 9.988 9.988 0 0 1 4.86 1.26z"/><path d="m22 51v8h-4a3 3 0 0 1 -3-3v-5z"/><path d="m38 51v8h4a3 3 0 0 0 3-3v-5z"/></g><path d="m38 11v4a1 1 0 0 0 1 1h.01a2.944 2.944 0 0 1 2.99 3 2.986 2.986 0 0 1 -2.24 2.9 1.009 1.009 0 0 0 -.79.86 9 9 0 0 1 -17.94 0 1.009 1.009 0 0 0 -.79-.86 3 3 0 0 1 .75-5.9h.01a1 1 0 0 0 1-1v-4z" fill="#e7bda0"/><path d="m42 7a6 6 0 0 1 -6 6 5.9 5.9 0 0 1 -3.68-1.27 4.979 4.979 0 0 1 -7.06-.42 4 4 0 1 1 -.78-5.44 4.987 4.987 0 0 1 4.52-2.87 4.806 4.806 0 0 1 2.14.49 6 6 0 0 1 10.86 3.51z" fill="#ceab65"/><path d="m21 59v-10a1 1 0 0 1 2 0v10z" fill="#647dbc"/><path d="m37 59v-10a1 1 0 0 1 2 0v10z" fill="#647dbc"/><path d="m31 40v2.97c-.32.02-.65.03-1 .03s-.68-.01-1-.03v-2.97a1 1 0 0 1 2 0z" fill="#ba8f79"/></svg>