<svg id="Icons" height="512" viewBox="0 0 60 60" width="512" xmlns="http://www.w3.org/2000/svg"><path d="m41 59h-22l-6-8v-4a12 12 0 0 1 12-12h10a12 12 0 0 1 12 12v4z" fill="#37a58a"/><g fill="#8f5c4a"><path d="m26 30.06v4.94a4 4 0 0 0 4 4 4 4 0 0 0 4-4v-4.94z"/><path d="m20 51v8h-4a3 3 0 0 1 -3-3v-5z"/><path d="m40 51v8h4a3 3 0 0 0 3-3v-5z"/></g><path d="m40 10 4.92 4.7a3.7 3.7 0 0 1 -2.61 6.3 8.518 8.518 0 0 1 -1.03-.06l-4.28-5.94z" fill="#355066"/><path d="m21 12v3.13a1.031 1.031 0 0 1 -.8.977 3 3 0 0 0 .04 5.793 1.009 1.009 0 0 1 .79.86 9 9 0 0 0 17.94 0 1.009 1.009 0 0 1 .79-.86 3 3 0 0 0 .037-5.793 1.031 1.031 0 0 1 -.8-.977v-3.13z" fill="#a6725c"/><path d="m27 8h6a2 2 0 0 1 2 2v3a0 0 0 0 1 0 0h-10a0 0 0 0 1 0 0v-3a2 2 0 0 1 2-2z" fill="#355066"/><path d="m40 8v5a1 1 0 0 1 -1 1h-4.021a.979.979 0 0 1 -.979-.979v-2.021a2.006 2.006 0 0 0 -2-2h-4a2.006 2.006 0 0 0 -2 2v2.021a.979.979 0 0 1 -.979.979h-4.021a1 1 0 0 1 -1-1v-5a7 7 0 0 1 7-7h6a7 7 0 0 1 7 7z" fill="#39607a"/><path d="m19 59v-10a1 1 0 0 1 2 0v10z" fill="#2b7f69"/><path d="m39 59v-10a1 1 0 0 1 2 0v10z" fill="#2b7f69"/></svg>