<svg id="Icons" height="512" viewBox="0 0 60 60" width="512" xmlns="http://www.w3.org/2000/svg"><path d="m40 10 4.92 4.7a3.7 3.7 0 0 1 -2.61 6.3 8.518 8.518 0 0 1 -1.03-.06l-3.28-4.94z" fill="#355066"/><path d="m39 59h-18l-6-8v-6a10.007 10.007 0 0 1 5.14-8.74h19.72a10.015 10.015 0 0 1 5.14 8.74v6z" fill="#c74c5e"/><g fill="#e7bda0"><path d="m39.86 36.26c-.47 2.55-2.28 6.36-8.86 6.71-.32.02-.65.03-1 .03s-.68-.01-1-.03c-6.58-.35-8.39-4.16-8.86-6.71a9.988 9.988 0 0 1 4.86-1.26 1 1 0 0 0 1-1v-3.94h8v3.94a1 1 0 0 0 1 1 9.988 9.988 0 0 1 4.86 1.26z"/><path d="m22 51v8h-4a3 3 0 0 1 -3-3v-5z"/><path d="m38 51v8h4a3 3 0 0 0 3-3v-5z"/></g><path d="m39 12 .01 4a2.944 2.944 0 0 1 2.99 3 2.986 2.986 0 0 1 -2.24 2.9 1.009 1.009 0 0 0 -.79.86 9 9 0 0 1 -17.26 2.74l1.29-13.5z" fill="#f6d0b3"/><path d="m20.2 13.59c-2.74 5.6-1.44 14.27-.37 16.97a.692.692 0 0 0 1.33-.22c.85-10.95 3.86-16.34 3.86-16.34z" fill="#d95f3d"/><path d="m27 8h6a2 2 0 0 1 2 2v3a0 0 0 0 1 0 0h-10a0 0 0 0 1 0 0v-3a2 2 0 0 1 2-2z" fill="#355066"/><path d="m40 8v5a1 1 0 0 1 -1 1h-4.021a.979.979 0 0 1 -.979-.979v-2.021a2.006 2.006 0 0 0 -2-2h-4a2.006 2.006 0 0 0 -2 2v2.021a.979.979 0 0 1 -.979.979h-4.021a1 1 0 0 1 -1-1v-5a7 7 0 0 1 7-7h6a7 7 0 0 1 7 7z" fill="#39607a"/><path d="m37 59v-10a1 1 0 0 1 2 0v10z" fill="#a03c4f"/><path d="m31 40v2.97c-.32.02-.65.03-1 .03s-.68-.01-1-.03v-2.97a1 1 0 0 1 2 0z" fill="#d7aa91"/><path d="m21 59v-10a1 1 0 0 1 2 0v10z" fill="#a03c4f"/></svg>