<svg id="Icons" height="512" viewBox="0 0 60 60" width="512" xmlns="http://www.w3.org/2000/svg"><path d="m32.82 30.547a2.47 2.47 0 0 1 2.03 4.453h.15a12 12 0 0 1 12 12v9a3 3 0 0 1 -3 3h-28a3 3 0 0 1 -3-3v-9a12 12 0 0 1 12-12h.15a2.431 2.431 0 0 1 -1.15-2.082 2.48 2.48 0 0 1 2.44-2.49 2.435 2.435 0 0 1 .74.12z" fill="#39607a"/><path d="m18 19v-8a10 10 0 0 1 10-10h4a10 10 0 0 1 10 10v8z" fill="#333131"/><path d="m39 16a3 3 0 0 1 .76 5.9 1.009 1.009 0 0 0 -.79.86 9 9 0 0 1 -17.94 0 1.009 1.009 0 0 0 -.79-.86 3 3 0 0 1 .76-5.9l1.243-1.243a6 6 0 0 1 4.242-1.757h3.515a6 6 0 0 0 4.8-2.4l1.2-1.6s3 2 3 7z" fill="#e7bda0"/><g fill="#355066"><path d="m19 59v-10a1 1 0 0 1 2 0v10z"/><path d="m39 59v-10a1 1 0 0 1 2 0v10z"/></g></svg>