<svg id="Icons" height="512" viewBox="0 0 60 60" width="512" xmlns="http://www.w3.org/2000/svg"><path d="m39.86 36.26a10.015 10.015 0 0 1 5.14 8.74v11a3 3 0 0 1 -3 3h-24a3 3 0 0 1 -3-3v-11a10.007 10.007 0 0 1 5.14-8.74z" fill="#c74c5e"/><path d="m39.86 36.26c-.49 2.67-2.46 6.74-9.86 6.74s-9.37-4.07-9.86-6.74a9.988 9.988 0 0 1 4.86-1.26 1 1 0 0 0 1-1v-3.94h8v3.94a1 1 0 0 0 1 1 9.988 9.988 0 0 1 4.86 1.26z" fill="#d7aa91"/><path d="m40.27 16.26a2.733 2.733 0 0 1 1.43 1.37 3.034 3.034 0 0 1 -1.94 4.27 1.009 1.009 0 0 0 -.79.86 9 9 0 0 1 -17.94 0 1.009 1.009 0 0 0 -.79-.86 2.986 2.986 0 0 1 -2.24-2.9 3.081 3.081 0 0 1 .09-.75l-.09-3.25 8-7 14 3z" fill="#e7bda0"/><path d="m40.27 16.26c-.21.58-.43 1.09-.63 1.51a.363.363 0 0 1 -.69-.14 10.585 10.585 0 0 0 -1.37-4.72 11.338 11.338 0 0 1 -3.85 5.56.358.358 0 0 1 -.58-.33c1.32-9.08-7.15-8.14-7.15-8.14-3.4 1.36-3.01 5.26-2.48 7.45a.272.272 0 0 1 -.48.23c-1.36-1.68-2.05-1.68-2.05-1.68a3.006 3.006 0 0 0 -2.9 2.25 13.217 13.217 0 0 1 -2.97-5.74.427.427 0 0 1 .36-.53 4.2 4.2 0 0 0 2.52-.98 3.321 3.321 0 0 0 -1.34-2.55.423.423 0 0 1 .16-.74 8.783 8.783 0 0 1 4.18.29c2-5 4.72-6.74 11.89-7a.366.366 0 0 1 .26.64 10.512 10.512 0 0 0 -3.15 4.36s1.85-2.77 7.31-2.99a.37.37 0 0 1 .34.53 5.533 5.533 0 0 0 -.49 1.55c5.22 2.61 4.3 7.92 3.11 11.17z" fill="#647dbc"/><path d="m21 59v-10a1 1 0 0 1 2 0v10z" fill="#a03c4f"/><path d="m37 59v-10a1 1 0 0 1 2 0v10z" fill="#a03c4f"/><path d="m31 40v2.97c-.32.02-.65.03-1 .03s-.68-.01-1-.03v-2.97a1 1 0 0 1 2 0z" fill="#ba8f79"/></svg>