<svg id="Icons" height="512" viewBox="0 0 60 60" width="512" xmlns="http://www.w3.org/2000/svg"><path d="m34 35h1a10 10 0 0 1 10 10v11a3 3 0 0 1 -3 3h-24a3 3 0 0 1 -3-3v-11a10 10 0 0 1 10-10z" fill="#7996f2"/><path d="m26 32h-8.695a1.293 1.293 0 0 1 -1.187-1.824c.853-1.856 1.882-5.176 1.882-11.176v-6a12 12 0 0 1 12-12 12 12 0 0 1 12 12v6c0 6 1.029 9.32 1.882 11.176a1.293 1.293 0 0 1 -1.182 1.824z" fill="#4c3731"/><path d="m34 30.06v4.94a4 4 0 0 1 -4 4 4 4 0 0 1 -4-4v-4.94z" fill="#77493a"/><path d="m30 10s0 6 8.941 6a3 3 0 0 1 .821 5.9 1.007 1.007 0 0 0 -.794.857 9 9 0 0 1 -17.936 0 1.007 1.007 0 0 0 -.794-.857 3 3 0 0 1 .751-5.9q3.016-6 9.011-6z" fill="#8f5c4a"/><g fill="#647dbc"><path d="m21 59v-10a1 1 0 0 1 2 0v10z"/><path d="m37 59v-10a1 1 0 0 1 2 0v10z"/></g></svg>