<?xml version="1.0" standalone="no"?>
<!DOCTYPE svg PUBLIC "-//W3C//DTD SVG 20010904//EN"
 "http://www.w3.org/TR/2001/REC-SVG-20010904/DTD/svg10.dtd">
<svg version="1.0" xmlns="http://www.w3.org/2000/svg"
 width="1042.000000pt" height="1042.000000pt" viewBox="0 0 1042.000000 1042.000000"
 preserveAspectRatio="xMidYMid meet">
<metadata>
Created by potrace 1.14, written by Peter Selinger 2001-2017
</metadata>
<g transform="translate(0.000000,1042.000000) scale(0.100000,-0.100000)"
fill="#000000" stroke="none">
<path d="M4937 8878 c-10 -5 -13 -224 -12 -1111 0 -959 2 -1107 15 -1123 8
-10 18 -23 23 -29 78 -104 356 -480 393 -530 8 -11 66 -90 130 -175 63 -85
123 -166 134 -180 10 -14 47 -63 81 -110 35 -47 67 -86 71 -88 5 -2 8 -8 8
-14 0 -6 18 -32 40 -58 22 -26 40 -53 40 -59 0 -6 4 -11 9 -11 5 0 13 -9 16
-20 3 -11 11 -20 16 -20 5 0 9 493 9 1274 l0 1274 183 -3 c100 -2 322 -6 492
-10 171 -3 436 -8 590 -11 335 -6 356 -7 373 -17 7 -5 12 -3 12 3 0 6 4 9 8 6
4 -2 37 -7 72 -11 36 -3 83 -9 105 -12 22 -2 54 -6 71 -8 17 -1 41 -6 53 -10
13 -4 33 -8 44 -10 34 -5 57 -11 137 -38 223 -74 498 -268 638 -452 26 -33 50
-61 54 -63 4 -2 8 -8 8 -14 0 -5 8 -22 18 -36 73 -105 158 -322 178 -456 27
-177 23 -353 -11 -501 -13 -59 -38 -136 -58 -185 -6 -14 -11 -27 -12 -30 -16
-67 -149 -269 -237 -361 -74 -78 -207 -187 -281 -230 -76 -44 -91 -53 -97 -60
-9 -9 -163 -94 -214 -118 -45 -21 -211 -79 -245 -86 -9 -2 -38 -9 -66 -15 -51
-12 -61 -14 -130 -25 -54 -9 -71 -12 -135 -20 -30 -3 -66 -8 -80 -10 -31 -5
-163 -16 -255 -21 -88 -5 -930 -5 -967 0 -16 2 -28 1 -28 -2 0 -7 49 -72 75
-98 38 -40 65 -74 65 -83 0 -5 4 -11 8 -13 5 -1 41 -43 80 -91 40 -49 78 -95
85 -102 6 -7 23 -28 37 -46 14 -18 30 -37 35 -43 6 -6 40 -47 75 -91 36 -43
72 -88 82 -100 27 -33 137 -167 176 -214 21 -24 44 -54 52 -65 8 -12 19 -25
25 -31 6 -5 43 -48 81 -95 38 -47 73 -90 79 -96 5 -6 21 -26 35 -44 14 -18 30
-38 35 -44 6 -6 60 -72 120 -146 60 -74 124 -151 142 -170 18 -19 33 -38 33
-42 0 -4 10 -17 23 -30 12 -13 38 -43 58 -68 20 -25 46 -56 58 -70 11 -14 24
-29 28 -35 13 -16 97 -119 108 -131 5 -7 26 -31 45 -55 19 -24 49 -60 65 -80
17 -20 44 -54 60 -74 17 -21 35 -43 40 -49 6 -6 30 -36 55 -66 25 -30 47 -57
50 -60 3 -3 66 -79 140 -170 73 -91 149 -183 167 -205 19 -22 39 -47 46 -55
15 -18 96 -117 117 -143 8 -11 20 -24 25 -31 6 -6 30 -36 55 -66 25 -30 48
-56 53 -58 4 -2 7 -8 7 -12 0 -5 12 -22 28 -38 35 -38 62 -71 62 -77 0 -3 8
-13 18 -23 25 -27 57 -65 152 -182 47 -58 98 -119 114 -137 l28 -32 645 0 645
1 -28 31 c-16 17 -38 40 -50 51 -11 12 -51 57 -89 101 -66 76 -126 143 -152
170 -7 7 -9 15 -6 19 4 3 2 6 -4 6 -6 0 -52 50 -104 111 -52 62 -100 118 -108
126 -7 8 -29 33 -48 56 -47 56 -106 126 -133 157 -12 14 -38 45 -58 69 -21 24
-42 49 -47 55 -6 6 -46 54 -90 106 -44 52 -82 97 -85 100 -3 3 -39 46 -80 95
-41 50 -77 92 -80 95 -3 3 -41 48 -84 100 -44 52 -86 102 -93 110 -7 8 -33 40
-58 70 -25 30 -62 73 -80 95 -19 22 -43 50 -52 63 -10 13 -39 46 -65 75 -26
29 -48 55 -48 58 0 3 -10 17 -22 31 -13 13 -39 44 -58 67 -19 23 -44 52 -55
65 -11 13 -33 40 -50 62 -16 21 -45 53 -62 72 -18 19 -33 36 -33 39 0 2 -38
50 -85 106 -47 56 -98 117 -113 136 -15 18 -32 38 -37 45 -6 6 -46 56 -90 111
-44 55 -83 102 -87 103 -23 10 5 30 52 38 8 2 31 6 50 10 51 10 61 12 101 17
19 2 44 7 55 10 10 3 36 8 56 11 21 3 57 11 80 16 24 6 54 13 68 16 124 26
356 136 523 248 109 72 139 95 181 131 6 6 35 30 64 54 190 157 445 472 513
636 7 17 18 37 24 45 24 31 93 248 111 348 2 12 7 34 10 50 8 38 11 59 18 122
4 30 9 66 11 80 25 143 25 770 0 910 -3 14 -7 45 -11 70 -3 25 -8 56 -10 70
-3 14 -9 48 -14 75 -12 66 -18 93 -25 115 -3 10 -7 27 -9 37 -15 71 -105 271
-192 421 -44 77 -159 249 -215 324 -57 74 -237 263 -302 316 -90 74 -235 156
-352 200 -101 39 -425 111 -570 128 -22 2 -53 6 -70 9 -164 23 -485 46 -860
60 -296 12 -441 14 -1335 20 -514 4 -952 7 -973 9 -20 1 -43 -2 -50 -6z"/>
<path d="M967 8867 c4 -7 11 -16 15 -22 12 -14 158 -207 183 -241 16 -22 64
-85 152 -199 5 -6 28 -37 52 -70 25 -33 47 -62 50 -65 4 -3 26 -32 50 -65 25
-33 47 -62 50 -65 3 -3 11 -12 16 -21 10 -16 91 -124 108 -144 4 -5 55 -73
113 -150 58 -77 110 -147 117 -155 7 -9 32 -42 57 -75 25 -33 48 -61 53 -63 4
-2 7 -8 7 -13 0 -5 6 -17 14 -26 75 -92 106 -133 106 -141 0 -6 4 -12 8 -14 4
-1 91 -113 193 -248 101 -135 189 -252 196 -260 7 -8 33 -44 60 -80 26 -36 50
-67 53 -70 3 -3 32 -41 65 -85 32 -44 61 -82 64 -85 4 -3 17 -21 31 -40 13
-19 28 -39 32 -45 5 -5 29 -37 54 -70 24 -33 53 -71 64 -85 37 -48 165 -218
185 -246 11 -15 39 -51 63 -80 23 -29 42 -57 42 -62 0 -6 4 -12 8 -14 5 -1 35
-39 68 -83 32 -44 61 -82 64 -85 4 -3 21 -26 39 -51 30 -43 32 -48 17 -65 -24
-29 -407 -505 -441 -549 -16 -21 -34 -43 -40 -49 -5 -6 -28 -34 -50 -61 -22
-28 -44 -55 -50 -61 -5 -6 -19 -23 -30 -38 -11 -16 -32 -42 -48 -59 -15 -18
-30 -37 -35 -42 -18 -25 -128 -162 -142 -177 -16 -18 -17 -19 -70 -88 -19 -25
-37 -47 -40 -50 -3 -3 -53 -63 -110 -135 -57 -71 -106 -132 -109 -135 -5 -4
-252 -311 -298 -370 -18 -23 -116 -143 -128 -156 -5 -7 -22 -27 -37 -45 -72
-90 -272 -337 -290 -358 -12 -14 -32 -40 -45 -59 -12 -19 -23 -31 -23 -26 0 5
-8 -3 -17 -16 -10 -14 -25 -34 -34 -45 -9 -11 -47 -58 -85 -105 -38 -47 -73
-90 -79 -97 -5 -7 -15 -18 -20 -25 -71 -90 -281 -344 -287 -346 -4 -2 -8 -8
-8 -13 0 -5 -8 -17 -17 -27 -24 -24 -89 -104 -133 -161 -19 -25 -40 -50 -46
-56 -6 -5 -62 -73 -124 -150 -110 -135 -162 -198 -199 -240 -18 -19 -110 -131
-141 -169 -8 -10 -34 -39 -58 -65 -84 -89 -144 -80 572 -81 l635 0 43 57 c24
32 45 60 48 63 6 5 78 100 224 295 33 44 63 82 66 85 3 3 32 41 65 85 33 44
62 82 65 85 3 3 39 50 80 105 41 55 79 105 85 111 5 6 37 47 70 92 32 45 63
82 67 82 4 0 8 4 8 10 0 5 7 18 15 27 8 10 92 119 186 243 93 124 178 234 187
245 10 11 33 43 52 70 19 28 40 55 46 60 6 6 40 48 74 95 35 47 66 87 69 90 3
3 48 61 100 130 52 69 106 139 120 157 14 18 34 42 43 55 94 124 150 195 161
208 7 8 27 33 43 55 16 22 34 46 41 55 7 8 54 69 105 135 50 66 96 122 100
123 4 2 8 7 8 12 0 5 9 19 20 32 27 32 174 218 235 298 27 36 57 74 67 84 10
11 18 24 18 28 0 5 5 6 10 3 6 -3 10 1 10 9 0 8 6 19 13 23 7 4 22 20 34 36
24 31 28 29 81 -41 15 -21 29 -39 33 -42 9 -9 229 -301 229 -306 0 -3 18 -27
45 -58 6 -6 26 -34 45 -61 19 -28 38 -51 42 -53 4 -2 8 -8 8 -13 0 -5 7 -17
14 -26 8 -10 80 -108 160 -218 80 -110 149 -205 154 -210 5 -6 17 -24 27 -40
10 -17 23 -34 29 -40 6 -5 23 -28 38 -51 21 -33 25 -50 23 -90 -4 -50 -14
-205 -20 -304 -2 -30 -6 -100 -10 -155 -8 -118 -10 -162 -19 -310 -4 -60 -9
-132 -11 -160 -4 -46 -8 -102 -20 -320 -3 -44 -7 -109 -10 -145 -6 -70 -13
-178 -20 -305 -2 -44 -7 -111 -10 -150 -3 -38 -7 -109 -10 -157 l-4 -86 679
-1 680 0 -5 32 c-2 18 -7 68 -10 112 -5 77 -7 100 -20 250 -4 39 -8 95 -10
125 -2 30 -6 80 -9 110 -9 101 -17 185 -21 240 -2 30 -6 78 -9 105 -5 49 -14
152 -22 250 -3 51 -13 162 -18 225 -2 19 -7 76 -11 125 -3 50 -8 106 -10 125
-2 19 -7 71 -10 115 -3 44 -8 96 -9 115 -2 19 -7 73 -11 120 -3 47 -9 108 -11
135 -3 28 -7 77 -9 110 -2 33 -4 60 -5 60 -1 0 -3 24 -5 53 -3 49 -10 62 -107
190 -56 75 -105 139 -108 142 -3 3 -17 21 -30 40 -13 19 -27 37 -30 40 -3 3
-22 28 -41 55 -18 28 -39 55 -45 60 -6 6 -24 28 -40 50 -16 22 -32 44 -37 50
-27 35 -95 126 -112 150 -11 15 -31 42 -46 59 -32 39 -411 541 -424 563 -5 9
-22 30 -37 47 -16 17 -28 34 -28 38 0 3 -6 13 -13 20 -7 7 -55 69 -107 138
-52 69 -98 130 -102 135 -8 9 -39 50 -181 239 -61 82 -138 183 -152 201 -9 11
-24 31 -33 44 -30 42 -101 136 -112 149 -36 42 -110 145 -110 153 0 5 -4 9 -9
9 -4 0 -21 19 -37 43 -16 23 -37 51 -47 62 -10 11 -25 32 -33 48 -8 15 -18 27
-22 27 -4 0 -16 15 -27 33 -10 17 -32 46 -47 62 -15 17 -28 36 -28 43 0 6 -4
12 -9 12 -5 0 -19 15 -30 33 -11 17 -31 44 -43 59 -13 15 -34 44 -48 64 -14
20 -33 43 -42 52 -10 9 -18 22 -18 28 0 7 -4 14 -8 16 -5 2 -71 86 -147 188
-77 102 -142 187 -145 190 -8 7 -121 160 -149 200 -13 19 -26 37 -30 40 -4 3
-67 86 -141 185 -74 99 -137 182 -140 185 -3 3 -80 104 -170 225 -91 121 -167
222 -170 225 -3 3 -61 79 -130 170 -68 91 -129 168 -134 173 -6 4 -291 7 -634
6 -468 -1 -620 -4 -615 -12z"/>
</g>
</svg>
