<svg id="Outer_Lines" height="512" viewBox="0 0 60 60" width="512" xmlns="http://www.w3.org/2000/svg" data-name="Outer Lines"><path d="m6 49a5 5 0 0 1 -5-5v-40a3 3 0 0 1 3-3h12.34a4 4 0 0 1 2.83 1.17l2.66 2.66a4 4 0 0 0 2.83 1.17h21.34a3 3 0 0 1 3 3v4l-40 36z" fill="#2aa1b5"/><path d="m59 16v28a5 5 0 0 1 -5 5h-48a4.985 4.985 0 0 0 5-5v-28a3 3 0 0 1 3-3h42a3 3 0 0 1 3 3z" fill="#4abdd8"/><path d="m54.95 48.47-22.43-19.42a9.017 9.017 0 0 0 -10.97-11.7.911.911 0 0 0 -.41 1.53l4.31 4.32a2.016 2.016 0 0 1 0 2.84l-1.41 1.41a2.016 2.016 0 0 1 -2.84 0l-4.32-4.31a.911.911 0 0 0 -1.53.41 9.017 9.017 0 0 0 11.7 10.97l19.42 22.43a6.009 6.009 0 1 0 8.48-8.48zm-2.56 5.92a2 2 0 1 1 0-2.83 2 2 0 0 1 0 2.83z" fill="#d6dbe3"/><path d="m30.809 46 16.817-16.816 3.219-.771a1.158 1.158 0 0 0 .724-.542l3.277-5.617a1.006 1.006 0 0 0 -.122-1.228l-1.749-1.75a1.011 1.011 0 0 0 -1.229-.122l-5.617 3.277a1.158 1.158 0 0 0 -.542.724l-.77 3.219-16.817 16.817z" fill="#f0f2f5"/><path d="m32.743 46.914-5.656-5.657a2 2 0 0 0 -2.828 2.828l-8.085 8.085a4 4 0 0 0 5.656 5.657l8.085-8.085a2 2 0 1 0 2.828-2.828z" fill="#f86e50"/><path d="m19.709 55.291a1 1 0 0 1 -.709-1.707l7.378-7.378a1 1 0 1 1 1.414 1.414l-7.376 7.38a1 1 0 0 1 -.707.291z" fill="#bf5240"/></svg>