<svg id="Outer_Lines" height="512" viewBox="0 0 60 60" width="512" xmlns="http://www.w3.org/2000/svg" data-name="Outer Lines"><path d="m6 49a5 5 0 0 1 -5-5v-40a3 3 0 0 1 3-3h12.34a4 4 0 0 1 2.83 1.17l2.66 2.66a4 4 0 0 0 2.83 1.17h21.34a3 3 0 0 1 3 3v4l-40 36z" fill="#2aa1b5"/><path d="m59 16v28a5 5 0 0 1 -5 5h-48a4.985 4.985 0 0 0 5-5v-28a3 3 0 0 1 3-3h42a3 3 0 0 1 3 3z" fill="#4abdd8"/><circle cx="35" cy="39" fill="#346d92" r="20"/><circle cx="35" cy="39" fill="#fff" r="16"/><circle cx="35" cy="39" fill="#b9bfcc" r="3"/><g fill="#295474"><path d="m35 22a17 17 0 1 0 17 17 17.019 17.019 0 0 0 -17-17zm-11.275 7.139.669.669a1 1 0 0 0 1.414-1.414l-.669-.669a14.912 14.912 0 0 1 8.861-3.674v.949a1 1 0 0 0 2 0v-.949a14.912 14.912 0 0 1 8.861 3.674l-.669.668a1 1 0 1 0 1.414 1.415l.669-.669a14.912 14.912 0 0 1 3.674 8.861h-.949a1 1 0 0 0 0 2h.949a14.912 14.912 0 0 1 -3.674 8.861l-.669-.669a1 1 0 0 0 -1.414 1.414l.669.669a14.912 14.912 0 0 1 -8.861 3.674v-.949a1 1 0 0 0 -2 0v.949a14.912 14.912 0 0 1 -8.861-3.674l.669-.669a1 1 0 0 0 -1.414-1.414l-.669.669a14.912 14.912 0 0 1 -3.674-8.861h.949a1 1 0 0 0 0-2h-.949a14.912 14.912 0 0 1 3.674-8.861z"/><path d="m41.45 36.89-3.48 1.74a2.9 2.9 0 0 0 -.89-1.79l3.47-1.73a1 1 0 1 1 .9 1.78z"/><path d="m36 30v6.18a2.868 2.868 0 0 0 -2 0v-6.18a1 1 0 0 1 2 0z"/></g></svg>