<svg id="Outer_Lines" height="512" viewBox="0 0 60 60" width="512" xmlns="http://www.w3.org/2000/svg" data-name="Outer Lines"><path d="m6 49a5 5 0 0 1 -5-5v-40a3 3 0 0 1 3-3h12.34a4 4 0 0 1 2.83 1.17l2.66 2.66a4 4 0 0 0 2.83 1.17h21.34a3 3 0 0 1 3 3v4l-40 36z" fill="#2aa1b5"/><path d="m59 16v28a5 5 0 0 1 -5 5h-48a4.985 4.985 0 0 0 5-5v-28a3 3 0 0 1 3-3h42a3 3 0 0 1 3 3z" fill="#4abdd8"/><path d="m50.61 31.4-3.6 3.61-6.01-3.01-3-6 3.6-3.61 5.4 3.61z" fill="#d6dbe3"/><path d="m47.01 35.01-21.59 21.58a2.512 2.512 0 0 1 -1.31.7l-8.59 1.69a1.282 1.282 0 0 1 -1.5-1.5l1.69-8.59a2.512 2.512 0 0 1 .7-1.31l21.59-21.58z" fill="#efb33a"/><path d="m44.342 20.6h8.745a2 2 0 0 1 2 2v5.379a0 0 0 0 1 0 0h-12.745a0 0 0 0 1 0 0v-5.379a2 2 0 0 1 2-2z" fill="#ec3a48" transform="matrix(.707 .707 -.707 .707 31.441 -27.332)"/><path d="m25.05 56.89a2.372 2.372 0 0 1 -.94.4l-8.59 1.69a1.282 1.282 0 0 1 -1.5-1.5l1.69-8.59a2.372 2.372 0 0 1 .4-.94z" fill="#a56c46"/><path d="m20.08 58.08-4.56.9a1.282 1.282 0 0 1 -1.5-1.5l.9-4.56z" fill="#434a56"/><path d="m16.04 40.46h30.999v2h-30.999z" fill="#d8992b" transform="matrix(.707 -.707 .707 .707 -20.079 34.446)"/></svg>