<svg id="Outer_Lines" height="512" viewBox="0 0 60 60" width="512" xmlns="http://www.w3.org/2000/svg" data-name="Outer Lines"><path d="m28 42h4v9h-4z" fill="#ccd0da"/><rect fill="#ccd0da" height="58" rx="2" transform="matrix(0 1 -1 0 86 26)" width="4" x="28" y="27"/><path d="m33 52v-2a1 1 0 0 0 -1-1h-4a1 1 0 0 0 -1 1v2a1 1 0 0 1 -1 1h-3a1 1 0 0 0 -1 1v4a1 1 0 0 0 1 1h14a1 1 0 0 0 1-1v-4a1 1 0 0 0 -1-1h-3a1 1 0 0 1 -1-1z" fill="#f86e50"/><path d="m8.5 44a4.512 4.512 0 0 1 -4.5-4.479v-35.833a2.715 2.715 0 0 1 2.708-2.688h11.066a3.564 3.564 0 0 1 2.526 1.048l1.77 1.776a4 4 0 0 0 2.83 1.176h19.1a3 3 0 0 1 3 3v4l-35 32z" fill="#2aa1b5"/><path d="m8.521 44a4.516 4.516 0 0 0 3.171-1.3 4.447 4.447 0 0 0 1.308-3.144v-24.869a2.687 2.687 0 0 1 2.687-2.687h37.313a3 3 0 0 1 3 3v24.521a4.479 4.479 0 0 1 -4.479 4.479z" fill="#4abdd8"/></svg>