<svg id="Outer_Lines" height="512" viewBox="0 0 60 60" width="512" xmlns="http://www.w3.org/2000/svg" data-name="Outer Lines"><path d="m6 49a5 5 0 0 1 -5-5v-40a3 3 0 0 1 3-3h12.34a4 4 0 0 1 2.83 1.17l2.66 2.66a4 4 0 0 0 2.83 1.17h21.34a3 3 0 0 1 3 3v4l-40 36z" fill="#2aa1b5"/><path d="m59 16v28a5 5 0 0 1 -5 5h-48a4.985 4.985 0 0 0 5-5v-28a3 3 0 0 1 3-3h42a3 3 0 0 1 3 3z" fill="#4abdd8"/><path d="m43.179 59h-16.358a2 2 0 0 1 -1.991-1.813l-2.83-30.187v-1h26v1l-2.83 30.187a2 2 0 0 1 -1.991 1.813z" fill="#b9bfcc"/><path d="m22 23h26a2 2 0 0 1 2 2v1a1 1 0 0 1 -1 1h-28a1 1 0 0 1 -1-1v-1a2 2 0 0 1 2-2z" fill="#d6dbe3"/><path d="m30 19h10a1 1 0 0 1 1 1v3a0 0 0 0 1 0 0h-12a0 0 0 0 1 0 0v-3a1 1 0 0 1 1-1z" fill="#d6dbe3"/><g fill="#8991a0"><path d="m42 32h-14a1 1 0 0 1 0-2h14a1 1 0 0 1 0 2z"/><path d="m30 56a1 1 0 0 1 -.994-.9l-2-20a1 1 0 0 1 1.994-.2l2 20a1 1 0 0 1 -.9 1.1c-.035 0-.068 0-.1 0z"/><path d="m40 56c-.033 0-.066 0-.1-.005a1 1 0 0 1 -.895-1.095l2-20a1 1 0 1 1 1.99.2l-2 20a1 1 0 0 1 -.995.9z"/><path d="m35 56a1 1 0 0 1 -1-1v-20a1 1 0 0 1 2 0v20a1 1 0 0 1 -1 1z"/></g></svg>