<svg id="Outer_Lines" height="512" viewBox="0 0 60 60" width="512" xmlns="http://www.w3.org/2000/svg" data-name="Outer Lines"><path d="m6 49a5 5 0 0 1 -5-5v-40a3 3 0 0 1 3-3h12.34a4 4 0 0 1 2.83 1.17l2.66 2.66a4 4 0 0 0 2.83 1.17h21.34a3 3 0 0 1 3 3v4l-40 36z" fill="#2aa1b5"/><path d="m59 16v28a5 5 0 0 1 -5 5h-48a4.985 4.985 0 0 0 5-5v-28a3 3 0 0 1 3-3h42a3 3 0 0 1 3 3z" fill="#4abdd8"/><circle cx="41" cy="31" fill="#0c70dc" r="13"/><path d="m27.96 46.86 5.37-5.37-2.82-2.82-5.42 5.42z" fill="#ccd0da"/><path d="m28.72 46.084a1 1 0 0 1 .012 1.426l-10.611 10.611a3 3 0 0 1 -4.242-4.242l10.563-10.563a1 1 0 0 1 1.4-.012z" fill="#7a4938"/><path d="m32.227 34a1 1 0 0 1 -.975-.779 10 10 0 0 1 16.819-9.292 1 1 0 0 1 -1.414 1.414 8 8 0 0 0 -13.457 7.436 1 1 0 0 1 -.755 1.2 1.046 1.046 0 0 1 -.218.021z" fill="#439af6"/><path d="m34.636 38.364a.993.993 0 0 1 -.71-.3c-.131-.131-.259-.266-.381-.4a1 1 0 0 1 1.494-1.33q.148.166.307.325a1 1 0 0 1 -.71 1.7z" fill="#439af6"/><path d="m41 45a14 14 0 1 1 14-14 14.015 14.015 0 0 1 -14 14zm0-26a12 12 0 1 0 12 12 12.013 12.013 0 0 0 -12-12z" fill="#d6dbe3"/></svg>