<svg id="Outer_Lines" height="512" viewBox="0 0 60 60" width="512" xmlns="http://www.w3.org/2000/svg" data-name="Outer Lines"><path d="m6 49a5 5 0 0 1 -5-5v-40a3 3 0 0 1 3-3h12.34a4 4 0 0 1 2.83 1.17l2.66 2.66a4 4 0 0 0 2.83 1.17h21.34a3 3 0 0 1 3 3v4l-40 36z" fill="#2aa1b5"/><path d="m59 16v28a5 5 0 0 1 -5 5h-48a4.985 4.985 0 0 0 5-5v-28a3 3 0 0 1 3-3h42a3 3 0 0 1 3 3z" fill="#4abdd8"/><path d="m50.706 28.451a9.939 9.939 0 0 0 -13.611.7l-2.095 2.116-2.31-2.346a9.74 9.74 0 0 0 -14.344.5 10.272 10.272 0 0 0 .694 13.815l15.252 15.464a1 1 0 0 0 1.423 0l15.485-15.7a10.065 10.065 0 0 0 -.5-14.548z" fill="#bf3d4d"/><g fill="#d35368"><path d="m21.887 41.427a1 1 0 0 1 -.712-.3 7.248 7.248 0 0 1 -.557-9.75 6.774 6.774 0 0 1 5.13-2.367 1 1 0 1 1 0 2 4.771 4.771 0 0 0 -3.614 1.672 5.241 5.241 0 0 0 .465 7.041 1 1 0 0 1 -.712 1.7z"/><path d="m25.411 45a1 1 0 0 1 -.712-.3l-.411-.417a1 1 0 0 1 1.424-1.4l.411.417a1 1 0 0 1 -.712 1.7z"/></g></svg>