<svg id="Outer_Lines" height="512" viewBox="0 0 60 60" width="512" xmlns="http://www.w3.org/2000/svg" data-name="Outer Lines"><path d="m6 49a5 5 0 0 1 -5-5v-40a3 3 0 0 1 3-3h12.34a4 4 0 0 1 2.83 1.17l2.66 2.66a4 4 0 0 0 2.83 1.17h21.34a3 3 0 0 1 3 3v4l-40 36z" fill="#2aa1b5"/><path d="m59 16v28a5 5 0 0 1 -5 5h-48a4.985 4.985 0 0 0 5-5v-28a3 3 0 0 1 3-3h42a3 3 0 0 1 3 3z" fill="#4abdd8"/><circle cx="35" cy="40" fill="#2a9672" r="19"/><circle cx="35" cy="40" fill="#31b791" r="15"/><path d="m33.042 48a2.13 2.13 0 0 1 -1.517-.637l-4.21-4.263a1.1 1.1 0 0 1 -.034-1.5l1.449-1.608a1.063 1.063 0 0 1 1.551-.036l2.428 2.457 6.538-9.93a1.066 1.066 0 0 1 1.489-.3l1.786 1.2a1.1 1.1 0 0 1 .3 1.507l-7.994 12.142a2.136 2.136 0 0 1 -1.574.957 1.882 1.882 0 0 1 -.212.011z" fill="#fff"/></svg>