<svg id="Outer_Lines" height="512" viewBox="0 0 60 60" width="512" xmlns="http://www.w3.org/2000/svg" data-name="Outer Lines"><path d="m6 49a5 5 0 0 1 -5-5v-40a3 3 0 0 1 3-3h12.34a4 4 0 0 1 2.83 1.17l2.66 2.66a4 4 0 0 0 2.83 1.17h21.34a3 3 0 0 1 3 3v4l-40 36z" fill="#2aa1b5"/><path d="m59 16v28a5 5 0 0 1 -5 5h-48a4.985 4.985 0 0 0 5-5v-28a3 3 0 0 1 3-3h42a3 3 0 0 1 3 3z" fill="#4abdd8"/><path d="m19.32 59h31.36a5.485 5.485 0 0 0 4.6-8.225l-15.68-28.033a5.229 5.229 0 0 0 -9.2 0l-15.68 28.033a5.485 5.485 0 0 0 4.6 8.225z" fill="#ec3a48"/><circle cx="35" cy="51" fill="#fff" r="3"/><rect fill="#fff" height="16" rx="3" width="6" x="32" y="28"/><g fill="#f8536c"><path d="m24 43.525a1 1 0 0 1 -.869-1.493l.3-.525a1 1 0 0 1 1.74.986l-.3.526a1 1 0 0 1 -.871.506z"/><path d="m24 56h-4.68a2.238 2.238 0 0 1 -1.956-1.16 2.587 2.587 0 0 1 -.025-2.6l3.252-5.732a1 1 0 0 1 1.74.986l-3.25 5.729a.574.574 0 0 0 .008.6c.1.173.174.173.231.173h4.68a1 1 0 0 1 0 2z"/></g></svg>