<svg id="Outer_Lines" height="512" viewBox="0 0 60 60" width="512" xmlns="http://www.w3.org/2000/svg" data-name="Outer Lines"><path d="m6 49a5 5 0 0 1 -5-5v-40a3 3 0 0 1 3-3h12.34a4 4 0 0 1 2.83 1.17l2.66 2.66a4 4 0 0 0 2.83 1.17h21.34a3 3 0 0 1 3 3v4l-40 36z" fill="#2aa1b5"/><path d="m59 16v28a5 5 0 0 1 -5 5h-48a4.985 4.985 0 0 0 5-5v-28a3 3 0 0 1 3-3h42a3 3 0 0 1 3 3z" fill="#4abdd8"/><path d="m51 59h-32a3 3 0 0 1 -3-3v-34a3 3 0 0 1 3-3h26.249a2 2 0 0 1 1.317.5l6.751 5.9a2 2 0 0 1 .683 1.508v29.092a3 3 0 0 1 -3 3z" fill="#346d92"/><path d="m45 19v11a1 1 0 0 1 -1 1h-18a1 1 0 0 1 -1-1v-11" fill="#d6dbe3"/><path d="m22 39h26a0 0 0 0 1 0 0v19a1 1 0 0 1 -1 1h-24a1 1 0 0 1 -1-1v-19a0 0 0 0 1 0 0z" fill="#d6dbe3" transform="matrix(-1 0 0 -1 70 98)"/><path d="m41 28a1 1 0 0 1 -1-1v-4a1 1 0 0 1 2 0v4a1 1 0 0 1 -1 1z" fill="#295474"/><g fill="#b9bfcc"><path d="m44 45h-18a1 1 0 0 1 0-2h18a1 1 0 0 1 0 2z"/><path d="m44 50h-18a1 1 0 0 1 0-2h18a1 1 0 0 1 0 2z"/><path d="m44 55h-18a1 1 0 0 1 0-2h18a1 1 0 0 1 0 2z"/></g></svg>