<svg id="Outer_Lines" height="512" viewBox="0 0 60 60" width="512" xmlns="http://www.w3.org/2000/svg" data-name="Outer Lines"><path d="m6 49a5 5 0 0 1 -5-5v-40a3 3 0 0 1 3-3h12.34a4 4 0 0 1 2.83 1.17l2.66 2.66a4 4 0 0 0 2.83 1.17h21.34a3 3 0 0 1 3 3v4l-40 36z" fill="#2aa1b5"/><path d="m59 16v28a5 5 0 0 1 -5 5h-48a4.985 4.985 0 0 0 5-5v-28a3 3 0 0 1 3-3h42a3 3 0 0 1 3 3z" fill="#4abdd8"/><circle cx="35" cy="41" fill="#2a9672" r="18"/><circle cx="35" cy="41" fill="#31b791" r="14"/><path d="m32 43h-1.476a1.521 1.521 0 0 0 -1.107 2.564l4.824 5.125a1.081 1.081 0 0 0 1.518 0l4.824-5.125a1.521 1.521 0 0 0 -1.106-2.564h-1.477v-10a1 1 0 0 0 -1-1h-4a1 1 0 0 0 -1 1z" fill="#fff"/></svg>