<svg id="Outer_Lines" height="512" viewBox="0 0 60 60" width="512" xmlns="http://www.w3.org/2000/svg" data-name="Outer Lines"><path d="m6 49a5 5 0 0 1 -5-5v-40a3 3 0 0 1 3-3h12.34a4 4 0 0 1 2.83 1.17l2.66 2.66a4 4 0 0 0 2.83 1.17h21.34a3 3 0 0 1 3 3v4l-40 36z" fill="#2aa1b5"/><path d="m59 16v28a5 5 0 0 1 -5 5h-48a4.985 4.985 0 0 0 5-5v-28a3 3 0 0 1 3-3h42a3 3 0 0 1 3 3z" fill="#4abdd8"/><circle cx="35" cy="40" fill="#0c70dc" r="19"/><circle cx="35" cy="30" fill="#fff" r="3"/><path d="m38 47v-9a1 1 0 0 0 -1-1h-7a1 1 0 0 0 -1 1v2a1 1 0 0 0 1 1 2 2 0 0 1 2 2v4a2 2 0 0 1 -2 2 1 1 0 0 0 -1 1v2a1 1 0 0 0 1 1h10a1 1 0 0 0 1-1v-2a1 1 0 0 0 -1-1 2 2 0 0 1 -2-2z" fill="#fff"/><g fill="#2783ec"><path d="m24 51.188a.994.994 0 0 1 -.733-.32 15.974 15.974 0 0 1 0-21.736 1 1 0 1 1 1.466 1.359 13.978 13.978 0 0 0 0 19.018 1 1 0 0 1 -.733 1.679z"/><path d="m46 51.188a1 1 0 0 1 -.733-1.679 13.978 13.978 0 0 0 0-19.018 1 1 0 1 1 1.466-1.359 15.974 15.974 0 0 1 0 21.736.994.994 0 0 1 -.733.32z"/></g></svg>