<svg id="Outer_Lines" height="512" viewBox="0 0 60 60" width="512" xmlns="http://www.w3.org/2000/svg" data-name="Outer Lines"><path d="m6 49a5 5 0 0 1 -5-5v-40a3 3 0 0 1 3-3h12.34a4 4 0 0 1 2.83 1.17l2.66 2.66a4 4 0 0 0 2.83 1.17h21.34a3 3 0 0 1 3 3v4l-40 36z" fill="#2aa1b5"/><path d="m59 16v28a5 5 0 0 1 -5 5h-48a4.985 4.985 0 0 0 5-5v-28a3 3 0 0 1 3-3h42a3 3 0 0 1 3 3z" fill="#4abdd8"/><circle cx="35" cy="40" fill="#d92936" r="19"/><circle cx="35" cy="40" fill="#f8536c" r="15"/><path d="m38.4 40 4.249-4.249a1.2 1.2 0 0 0 0-1.7l-1.7-1.7a1.2 1.2 0 0 0 -1.7 0l-4.249 4.249-4.249-4.249a1.2 1.2 0 0 0 -1.7 0l-1.7 1.7a1.2 1.2 0 0 0 0 1.7l4.249 4.249-4.249 4.249a1.2 1.2 0 0 0 0 1.7l1.7 1.7a1.2 1.2 0 0 0 1.7 0l4.249-4.249 4.249 4.249a1.2 1.2 0 0 0 1.7 0l1.7-1.7a1.2 1.2 0 0 0 0-1.7z" fill="#fff"/></svg>