<svg id="Outer_Lines" height="512" viewBox="0 0 60 60" width="512" xmlns="http://www.w3.org/2000/svg" data-name="Outer Lines"><path d="m6 49a5 5 0 0 1 -5-5v-40a3 3 0 0 1 3-3h12.34a4 4 0 0 1 2.83 1.17l2.66 2.66a4 4 0 0 0 2.83 1.17h21.34a3 3 0 0 1 3 3v4l-40 36z" fill="#2aa1b5"/><path d="m59 16v28a5 5 0 0 1 -5 5h-48a4.985 4.985 0 0 0 5-5v-28a3 3 0 0 1 3-3h42a3 3 0 0 1 3 3z" fill="#4abdd8"/><circle cx="35" cy="40" fill="#ccd0da" r="11"/><path d="m53.92 38.35a1 1 0 0 0 -.75-.85l-3.57-.9a14.859 14.859 0 0 0 -1.88-4.51l1.89-3.17a1 1 0 0 0 -.07-1.13c-.34-.42-.71-.83-1.1-1.23s-.81-.76-1.23-1.1a1 1 0 0 0 -1.13-.07l-3.17 1.89a14.859 14.859 0 0 0 -4.51-1.88l-.9-3.57a1 1 0 0 0 -.85-.75c-.54-.05-1.09-.08-1.65-.08s-1.11.03-1.65.08a1 1 0 0 0 -.85.75l-.9 3.57a14.859 14.859 0 0 0 -4.51 1.88l-3.17-1.89a1 1 0 0 0 -1.13.07 16.037 16.037 0 0 0 -2.33 2.33 1 1 0 0 0 -.07 1.13l1.89 3.17a14.859 14.859 0 0 0 -1.88 4.51l-3.57.9a1 1 0 0 0 -.75.85c-.05.54-.08 1.09-.08 1.65s.03 1.11.08 1.65a1 1 0 0 0 .75.85l3.57.9a14.859 14.859 0 0 0 1.88 4.51l-1.89 3.17a1 1 0 0 0 .07 1.13 17.488 17.488 0 0 0 2.33 2.33 1 1 0 0 0 1.13.07l3.17-1.89a14.859 14.859 0 0 0 4.51 1.88l.9 3.57a1 1 0 0 0 .85.75c.54.05 1.09.08 1.65.08s1.11-.03 1.65-.08a1 1 0 0 0 .85-.75l.9-3.57a14.859 14.859 0 0 0 4.51-1.88l3.17 1.89a1 1 0 0 0 1.13-.07 16.037 16.037 0 0 0 2.33-2.33 1 1 0 0 0 .07-1.13l-1.89-3.17a14.859 14.859 0 0 0 1.88-4.51l3.57-.9a1 1 0 0 0 .75-.85c.05-.54.08-1.09.08-1.65s-.03-1.11-.08-1.65zm-18.92 12.65a11 11 0 1 1 11-11 11.007 11.007 0 0 1 -11 11z" fill="#d6dbe3"/><circle cx="35" cy="40" fill="#f0f2f5" r="6"/><path d="m33 41a1 1 0 0 1 -1-1 3 3 0 0 1 3-3 1 1 0 0 1 0 2 1 1 0 0 0 -1 1 1 1 0 0 1 -1 1z" fill="#fff"/><path d="m35 52a12 12 0 1 1 12-12 12.013 12.013 0 0 1 -12 12zm0-22a10 10 0 1 0 10 10 10.011 10.011 0 0 0 -10-10z" fill="#b9bfcc"/></svg>