<svg id="Outer_Lines" height="512" viewBox="0 0 60 60" width="512" xmlns="http://www.w3.org/2000/svg" data-name="Outer Lines"><path d="m6 49a5 5 0 0 1 -5-5v-40a3 3 0 0 1 3-3h12.34a4 4 0 0 1 2.83 1.17l2.66 2.66a4 4 0 0 0 2.83 1.17h21.34a3 3 0 0 1 3 3v4l-40 36z" fill="#2aa1b5"/><path d="m59 16v28a5 5 0 0 1 -5 5h-48a4.985 4.985 0 0 0 5-5v-28a3 3 0 0 1 3-3h42a3 3 0 0 1 3 3z" fill="#4abdd8"/><path d="m54.95 34.8a.991.991 0 0 0 -.81-.68l-12.62-1.88-5.61-11.67a1.011 1.011 0 0 0 -1.82 0l-5.61 11.67-12.62 1.88a.986.986 0 0 0 -.85.88.94.94 0 0 0 .29.82l9.14 9.14-2.15 12.87a.971.971 0 0 0 .43.99.992.992 0 0 0 1.04.06l11.24-6.06 11.24 6.06a1.01 1.01 0 0 0 1.05-.06.99.99 0 0 0 .42-.99l-2.15-12.87 9.14-9.14a.992.992 0 0 0 .25-1.02z" fill="#fccb55"/><g fill="#e5b445"><path d="m35 20v14.2l-1.92 3.81-4.6-5.77 5.61-11.67a1.008 1.008 0 0 1 .91-.57z"/><path d="m31.7 42.28-7.26 2.68-9.14-9.14a.94.94 0 0 1 -.29-.82l12.99 3.74z"/><path d="m35 44.69v8.13l-11.24 6.06a.992.992 0 0 1 -1.04-.06l8.19-12.02z"/><path d="m47.29 58.82-8.2-12.02-.79-4.52 7.26 2.68 2.15 12.87a.99.99 0 0 1 -.42.99z"/><path d="m54.95 34.8-12.95 3.94-5.08-.73 4.6-5.77 12.62 1.88a.991.991 0 0 1 .81.68z"/></g><path d="m38.3 42.28.79 4.52-4.09-2.11-4.09 2.11.79-4.52-3.7-3.54 5.08-.73 1.92-3.81 1.92 3.81 5.08.73z" fill="#c99a3d"/></svg>