<svg id="Outer_Lines" height="512" viewBox="0 0 60 60" width="512" xmlns="http://www.w3.org/2000/svg" data-name="Outer Lines"><path d="m6 54a5 5 0 0 1 -5-5v-40a3 3 0 0 1 3-3h12.34a4 4 0 0 1 2.83 1.17l2.66 2.66a4 4 0 0 0 2.83 1.17h21.34a3 3 0 0 1 3 3v4l-40 36z" fill="#2aa1b5"/><path d="m59 21v28a5 5 0 0 1 -5 5h-48a4.985 4.985 0 0 0 5-5v-28a3 3 0 0 1 3-3h42a3 3 0 0 1 3 3z" fill="#4abdd8"/><rect fill="#fff" height="14" rx="2" width="32" x="19" y="25"/><g fill="#346d92"><path d="m26 31h-2a1 1 0 0 1 0-2h2a1 1 0 0 1 0 2z"/><path d="m42 35h-18a1 1 0 0 1 0-2h18a1 1 0 0 1 0 2z"/><path d="m36 31h-6a1 1 0 0 1 0-2h6a1 1 0 0 1 0 2z"/></g></svg>