<svg id="Outer_Lines" height="512" viewBox="0 0 60 60" width="512" xmlns="http://www.w3.org/2000/svg" data-name="Outer Lines"><path d="m6 49a5 5 0 0 1 -5-5v-40a3 3 0 0 1 3-3h12.34a4 4 0 0 1 2.83 1.17l2.66 2.66a4 4 0 0 0 2.83 1.17h21.34a3 3 0 0 1 3 3v4l-40 36z" fill="#2aa1b5"/><path d="m59 16v28a5 5 0 0 1 -5 5h-48a4.985 4.985 0 0 0 5-5v-28a3 3 0 0 1 3-3h42a3 3 0 0 1 3 3z" fill="#4abdd8"/><path d="m39 32v-5a5 5 0 0 0 -10 0v5h-4v-5a9 9 0 0 1 9-9 9 9 0 0 1 9 9v5z" fill="#f0f2f5"/><rect fill="#434a56" height="28" rx="3" width="26" x="21" y="31"/><g fill="#79808f"><rect height="4" rx="1" width="8" x="41" y="43"/><rect height="4" rx="1" width="8" x="41" y="51"/><rect height="4" rx="1" width="8" x="41" y="35"/></g><path d="m27 56a3 3 0 0 1 -3-3v-16a3 3 0 0 1 3-3 1 1 0 0 1 0 2 1 1 0 0 0 -1 1v16a1 1 0 0 0 1 1 1 1 0 0 1 0 2z" fill="#666e7c"/></svg>