<svg id="Icons" height="512" viewBox="0 0 60 60" width="512" xmlns="http://www.w3.org/2000/svg"><path d="m59 9v47a3 3 0 0 1 -3 3h-52a3 3 0 0 1 -3-3v-47l1-1h56z" fill="#e1efff"/><path d="m59 4v5h-58v-5a3 3 0 0 1 3-3h52a3 3 0 0 1 3 3z" fill="#5a6277"/><path d="m6 6h-1a1 1 0 0 1 0-2h1a1 1 0 0 1 0 2z" fill="#6ae596"/><path d="m11 6h-1a1 1 0 0 1 0-2h1a1 1 0 0 1 0 2z" fill="#fde05e"/><path d="m16 6h-1a1 1 0 0 1 0-2h1a1 1 0 0 1 0 2z" fill="#f26376"/><path d="m55 6h-6a1 1 0 0 1 0-2h6a1 1 0 0 1 0 2z" fill="#434b5b"/><path d="m53.619 32.818a2.024 2.024 0 0 1 0 2.364c-2.775 3.855-12.298 15.818-23.619 15.818s-20.844-11.963-23.619-15.818a2.024 2.024 0 0 1 0-2.364c2.775-3.855 12.298-15.818 23.619-15.818s20.844 11.963 23.619 15.818z" fill="#bfdbf0"/><circle cx="30" cy="34" fill="#4b95ff" r="13"/><circle cx="30" cy="34" fill="#2e5172" r="8"/><path d="m6.179 50.571a1.012 1.012 0 0 1 .25-1.392l46-32a1 1 0 1 1 1.142 1.642l-46 32a1.021 1.021 0 0 1 -1.392-.25z" fill="#cd4c60"/></svg>