<?xml version="1.0" encoding="utf-8"?>
<svg viewBox="0 5 65 25" xmlns="http://www.w3.org/2000/svg">
  <path d="M 62.824 13.546 L 62.824 25.546 C 62.824 27.203 61.48 28.546 59.824 28.546 L 24.824 28.546 L 24.824 31.435 C 24.825 33.822 22.242 35.314 20.175 34.122 C 20.015 34.03 19.864 33.924 19.724 33.805 L 5.912 21.914 C 4.461 20.668 4.461 18.422 5.912 17.175 L 19.724 5.296 C 21.532 3.75 24.336 4.741 24.771 7.08 C 24.807 7.27 24.824 7.462 24.824 7.655 L 24.824 10.546 L 59.824 10.546 C 61.48 10.546 62.824 11.889 62.824 13.546 Z" fill="#50a8ff"/>
  <path d="M 12.443 19.809 C 11.673 19.809 11.192 18.976 11.577 18.309 C 11.633 18.212 11.705 18.125 11.791 18.051 L 19.556 11.371 C 20.112 10.839 21.036 11.109 21.218 11.857 C 21.312 12.242 21.17 12.646 20.856 12.887 L 13.09 19.567 C 12.91 19.723 12.68 19.808 12.443 19.809 Z" fill="#7bc3ff"/>
  <g fill-rule="evenodd" transform="matrix(0.054577, 0, 0, 0.054577, 28.755302, 5.422953)" style="">
    <path d="m512 256c0 141.386719-114.613281 256-256 256s-256-114.613281-256-256 114.613281-256 256-256 256 114.613281 256 256zm0 0" fill="#d9515e"/>
    <path d="m268.480469 256 108.519531-108.515625c3.34375-3.464844 3.296875-8.972656-.109375-12.375-3.402344-3.40625-8.910156-3.453125-12.375-.109375l-108.515625 108.519531-108.515625-108.519531c-3.464844-3.34375-8.972656-3.296875-12.375.109375-3.40625 3.402344-3.453125 8.910156-.109375 12.375l108.519531 108.515625-108.519531 108.515625c-2.292969 2.21875-3.214844 5.5-2.40625 8.585937.808594 3.085938 3.21875 5.496094 6.304688 6.304688 3.085937.808594 6.367187-.113281 8.585937-2.40625l108.515625-108.519531 108.515625 108.519531c3.464844 3.34375 8.972656 3.296875 12.375-.109375 3.40625-3.402344 3.453125-8.910156.109375-12.375zm0 0" fill="#f7788d"/>
    <g fill="#e36671">
      <path d="m44.136719 203.035156c-2.777344 0-5.394531-1.308594-7.0625-3.53125-1.664063-2.222656-2.1875-5.101562-1.410157-7.769531 28.933594-97.667969 118.472657-164.824219 220.335938-165.25 4.875 0 8.828125 3.949219 8.828125 8.824219 0 4.878906-3.953125 8.828125-8.828125 8.828125-94.039062.386719-176.703125 62.375-203.414062 152.542969-1.097657 3.757812-4.535157 6.34375-8.449219 6.355468zm0 0"/>
      <path d="m38.117188 300.136719c-4.328126-.003907-8.015626-3.148438-8.703126-7.421875-1.953124-12.140625-2.933593-24.417969-2.929687-36.714844 0-4.875 3.949219-8.828125 8.824219-8.828125 4.878906 0 8.828125 3.953125 8.828125 8.828125.003906 11.355469.910156 22.695312 2.710937 33.90625.773438 4.8125-2.496094 9.339844-7.308594 10.117188-.46875.078124-.945312.117187-1.421874.113281zm0 0"/>
    </g>
  </g>
</svg>