<?xml version="1.0" encoding="utf-8"?>
<svg viewBox="0 5 65 25" xmlns="http://www.w3.org/2000/svg">
  <path d="M 62.003 13.84 L 62.003 25.84 C 62.003 27.497 60.659 28.84 59.003 28.84 L 24.003 28.84 L 24.003 31.729 C 24.004 34.116 21.421 35.608 19.354 34.416 C 19.194 34.324 19.043 34.218 18.903 34.099 L 5.091 22.208 C 3.64 20.962 3.64 18.716 5.091 17.469 L 18.903 5.59 C 20.711 4.044 23.515 5.035 23.95 7.374 C 23.986 7.564 24.003 7.756 24.003 7.949 L 24.003 10.84 L 59.003 10.84 C 60.659 10.84 62.003 12.183 62.003 13.84 Z" fill="#50a8ff"/>
  <path d="M 11.622 20.103 C 10.852 20.103 10.371 19.27 10.756 18.603 C 10.812 18.506 10.884 18.419 10.97 18.345 L 18.735 11.665 C 19.291 11.133 20.215 11.403 20.397 12.151 C 20.491 12.536 20.349 12.94 20.035 13.181 L 12.269 19.861 C 12.089 20.017 11.859 20.102 11.622 20.103 Z" fill="#7bc3ff"/>
</svg>