<?xml version="1.0" encoding="utf-8"?>
<svg viewBox="0 5 65 25" xmlns="http://www.w3.org/2000/svg">
  <path d="M 4.993 8.032 C 4.985 5.651 7.557 4.153 9.624 5.336 C 9.791 5.431 9.948 5.541 10.093 5.665 L 23.906 17.551 C 25.355 18.797 25.355 21.04 23.906 22.285 L 10.093 34.171 C 8.28 35.716 5.475 34.718 5.044 32.375 C 5.01 32.187 4.993 31.996 4.993 31.804 L 4.993 8.032 Z" fill="#50a8ff" transform="matrix(-1, 0, 0, -1, 29.985731, 39.835468)"/>
  <g fill="#419ae5" transform="matrix(-1, 0, 0, -1, 63.993095, 49.917656)">
    <rect height="18" rx="1" width="8" x="27" y="21"/>
    <rect height="18" rx="1" width="8" x="14" y="21"/>
    <path d="m4 21h4a1 1 0 0 1 1 1v16a1 1 0 0 1 -1 1h-4a3 3 0 0 1 -3-3v-12a3 3 0 0 1 3-3z"/>
  </g>
</svg>