<?xml version="1.0" encoding="utf-8"?>
<svg viewBox="0 5 65 25" xmlns="http://www.w3.org/2000/svg">
  <path d="m39 18.114a3.094 3.094 0 0 1 5.1-2.367l13.813 11.886a3.121 3.121 0 0 1 0 4.734l-13.813 11.886a3.094 3.094 0 0 1 -5.1-2.367z" fill="#50a8ff" transform="matrix(1, 0, 0, 1, 3.99339, -10.081582)"/>
  <g fill="#419ae5" transform="matrix(1, 0, 0, 1, 3.99339, -10.081582)">
    <rect height="18" rx="1" width="8" x="27" y="21"/>
    <rect height="18" rx="1" width="8" x="14" y="21"/>
    <path d="m4 21h4a1 1 0 0 1 1 1v16a1 1 0 0 1 -1 1h-4a3 3 0 0 1 -3-3v-12a3 3 0 0 1 3-3z"/>
  </g>
</svg>