<?xml version="1.0" encoding="utf-8"?>
<svg viewBox="0 5 65 25" xmlns="http://www.w3.org/2000/svg">
  <path d="M 62.003 13.84 L 62.003 25.84 C 62.003 27.497 60.659 28.84 59.003 28.84 L 24.003 28.84 L 24.003 31.729 C 24.004 34.116 21.421 35.608 19.354 34.416 C 19.194 34.324 19.043 34.218 18.903 34.099 L 5.091 22.208 C 3.64 20.962 3.64 18.716 5.091 17.469 L 18.903 5.59 C 20.711 4.044 23.515 5.035 23.95 7.374 C 23.986 7.564 24.003 7.756 24.003 7.949 L 24.003 10.84 L 59.003 10.84 C 60.659 10.84 62.003 12.183 62.003 13.84 Z" fill="#50a8ff" transform="matrix(-1, 0, 0, -1, 66.005753, 39.680759)"/>
  <path d="M 46.582 28.293 C 45.812 28.293 45.331 27.46 45.716 26.793 C 45.772 26.696 45.844 26.609 45.93 26.535 L 53.695 19.855 C 54.251 19.323 55.175 19.593 55.357 20.341 C 55.451 20.726 55.309 21.13 54.995 21.371 L 47.229 28.051 C 47.049 28.207 46.819 28.292 46.582 28.293 Z" fill="#7bc3ff" transform="matrix(-1, 0, 0, -1, 100.966072, 47.870129)"/>
</svg>