<?xml version="1.0" encoding="utf-8"?>
<svg viewBox="14.782 26.391 52.641 52.628" xmlns="http://www.w3.org/2000/svg">
  <path d="M 44.539 31.77 L 49.539 41.882 L 60.719 43.504 C 64.107 43.993 65.695 47.966 63.578 50.656 C 63.457 50.809 63.327 50.954 63.188 51.09 L 55.097 58.961 L 57.007 70.076 C 57.585 73.456 54.288 76.195 51.071 75.006 C 50.888 74.939 50.711 74.86 50.539 74.769 L 40.539 69.521 L 30.539 74.769 C 27.504 76.366 23.878 74.08 24.012 70.653 C 24.019 70.46 24.039 70.269 24.072 70.079 L 25.982 58.964 L 17.89 51.09 C 15.436 48.702 16.487 44.554 19.782 43.624 C 19.972 43.57 20.165 43.529 20.361 43.501 L 31.539 41.882 L 36.539 31.77 C 38.059 28.691 42.342 28.412 44.249 31.268 C 44.356 31.429 44.453 31.597 44.539 31.77 Z" style="fill: rgb(215, 67, 67);"/>
</svg>